<svg id="Hour_Markers_-_Singlets_Gradient" data-name="Hour Markers - Singlets Gradient" xmlns="http://www.w3.org/2000/svg" xmlns:xlink="http://www.w3.org/1999/xlink" viewBox="0 0 250 250"><defs><style>.cls-1,.cls-10,.cls-11,.cls-12,.cls-13,.cls-14,.cls-15,.cls-16,.cls-17,.cls-18,.cls-19,.cls-2,.cls-20,.cls-21,.cls-22,.cls-23,.cls-24,.cls-25,.cls-26,.cls-27,.cls-28,.cls-29,.cls-3,.cls-30,.cls-31,.cls-32,.cls-33,.cls-34,.cls-35,.cls-36,.cls-37,.cls-38,.cls-39,.cls-4,.cls-40,.cls-41,.cls-42,.cls-43,.cls-44,.cls-45,.cls-46,.cls-47,.cls-48,.cls-49,.cls-5,.cls-50,.cls-51,.cls-52,.cls-53,.cls-54,.cls-55,.cls-56,.cls-57,.cls-58,.cls-59,.cls-6,.cls-60,.cls-7,.cls-8,.cls-9{fill:none;stroke-linecap:round;stroke-miterlimit:10;}.cls-1,.cls-10,.cls-11,.cls-12,.cls-2,.cls-3,.cls-4,.cls-5,.cls-6,.cls-7,.cls-8,.cls-9{stroke-width:2.99px;}.cls-1{stroke:url(#Gray_Gradient_2);}.cls-2{stroke:url(#Gray_Gradient_2-2);}.cls-3{stroke:url(#Gray_Gradient_2-3);}.cls-4{stroke:url(#Gray_Gradient_2-4);}.cls-5{stroke:url(#Gray_Gradient_2-5);}.cls-6{stroke:url(#Gray_Gradient_2-6);}.cls-7{stroke:url(#Gray_Gradient_2-7);}.cls-8{stroke:url(#Gray_Gradient_2-8);}.cls-9{stroke:url(#Gray_Gradient_2-9);}.cls-10{stroke:url(#Gray_Gradient_2-10);}.cls-11{stroke:url(#Gray_Gradient_2-11);}.cls-12{stroke:url(#Gray_Gradient_2-12);}.cls-13,.cls-14,.cls-15,.cls-16,.cls-17,.cls-18,.cls-19,.cls-20,.cls-21,.cls-22,.cls-23,.cls-24,.cls-25,.cls-26,.cls-27,.cls-28,.cls-29,.cls-30,.cls-31,.cls-32,.cls-33,.cls-34,.cls-35,.cls-36,.cls-37,.cls-38,.cls-39,.cls-40,.cls-41,.cls-42,.cls-43,.cls-44,.cls-45,.cls-46,.cls-47,.cls-48,.cls-49,.cls-50,.cls-51,.cls-52,.cls-53,.cls-54,.cls-55,.cls-56,.cls-57,.cls-58,.cls-59,.cls-60{stroke-width:0.5px;}.cls-13{stroke:url(#Gray_Gradient_2-13);}.cls-14{stroke:url(#Gray_Gradient_2-14);}.cls-15{stroke:url(#Gray_Gradient_2-15);}.cls-16{stroke:url(#Gray_Gradient_2-16);}.cls-17{stroke:url(#Gray_Gradient_2-17);}.cls-18{stroke:url(#Gray_Gradient_2-18);}.cls-19{stroke:url(#Gray_Gradient_2-19);}.cls-20{stroke:url(#Gray_Gradient_2-20);}.cls-21{stroke:url(#Gray_Gradient_2-21);}.cls-22{stroke:url(#Gray_Gradient_2-22);}.cls-23{stroke:url(#Gray_Gradient_2-23);}.cls-24{stroke:url(#Gray_Gradient_2-24);}.cls-25{stroke:url(#Gray_Gradient_2-25);}.cls-26{stroke:url(#Gray_Gradient_2-26);}.cls-27{stroke:url(#Gray_Gradient_2-27);}.cls-28{stroke:url(#Gray_Gradient_2-28);}.cls-29{stroke:url(#Gray_Gradient_2-29);}.cls-30{stroke:url(#Gray_Gradient_2-30);}.cls-31{stroke:url(#Gray_Gradient_2-31);}.cls-32{stroke:url(#Gray_Gradient_2-32);}.cls-33{stroke:url(#Gray_Gradient_2-33);}.cls-34{stroke:url(#Gray_Gradient_2-34);}.cls-35{stroke:url(#Gray_Gradient_2-35);}.cls-36{stroke:url(#Gray_Gradient_2-36);}.cls-37{stroke:url(#Gray_Gradient_2-37);}.cls-38{stroke:url(#Gray_Gradient_2-38);}.cls-39{stroke:url(#Gray_Gradient_2-39);}.cls-40{stroke:url(#Gray_Gradient_2-40);}.cls-41{stroke:url(#Gray_Gradient_2-41);}.cls-42{stroke:url(#Gray_Gradient_2-42);}.cls-43{stroke:url(#Gray_Gradient_2-43);}.cls-44{stroke:url(#Gray_Gradient_2-44);}.cls-45{stroke:url(#Gray_Gradient_2-45);}.cls-46{stroke:url(#Gray_Gradient_2-46);}.cls-47{stroke:url(#Gray_Gradient_2-47);}.cls-48{stroke:url(#Gray_Gradient_2-48);}.cls-49{stroke:url(#Gray_Gradient_2-49);}.cls-50{stroke:url(#Gray_Gradient_2-50);}.cls-51{stroke:url(#Gray_Gradient_2-51);}.cls-52{stroke:url(#Gray_Gradient_2-52);}.cls-53{stroke:url(#Gray_Gradient_2-53);}.cls-54{stroke:url(#Gray_Gradient_2-54);}.cls-55{stroke:url(#Gray_Gradient_2-55);}.cls-56{stroke:url(#Gray_Gradient_2-56);}.cls-57{stroke:url(#Gray_Gradient_2-57);}.cls-58{stroke:url(#Gray_Gradient_2-58);}.cls-59{stroke:url(#Gray_Gradient_2-59);}.cls-60{stroke:url(#Gray_Gradient_2-60);}</style><linearGradient id="Gray_Gradient_2" x1="125" y1="0.01" x2="125" y2="17.94" gradientUnits="userSpaceOnUse"><stop offset="0" stop-color="#fff"/><stop offset="0.03" stop-color="#e2e2e2"/><stop offset="0.1" stop-color="#b3b3b3"/><stop offset="0.17" stop-color="#888"/><stop offset="0.24" stop-color="#636363"/><stop offset="0.32" stop-color="#444"/><stop offset="0.4" stop-color="#2b2b2b"/><stop offset="0.5" stop-color="#181818"/><stop offset="0.61" stop-color="#0a0a0a"/><stop offset="0.75" stop-color="#020202"/><stop offset="1"/></linearGradient><linearGradient id="Gray_Gradient_2-2" x1="187.5" y1="16.75" x2="178.53" y2="32.28" xlink:href="#Gray_Gradient_2"/><linearGradient id="Gray_Gradient_2-3" x1="233.25" y1="62.5" x2="217.72" y2="71.47" xlink:href="#Gray_Gradient_2"/><linearGradient id="Gray_Gradient_2-4" x1="249.99" y1="125" x2="232.06" y2="125" xlink:href="#Gray_Gradient_2"/><linearGradient id="Gray_Gradient_2-5" x1="233.25" y1="187.5" x2="217.72" y2="178.53" xlink:href="#Gray_Gradient_2"/><linearGradient id="Gray_Gradient_2-6" x1="187.5" y1="233.25" x2="178.53" y2="217.72" xlink:href="#Gray_Gradient_2"/><linearGradient id="Gray_Gradient_2-7" x1="125" y1="249.99" x2="125" y2="232.06" xlink:href="#Gray_Gradient_2"/><linearGradient id="Gray_Gradient_2-8" x1="62.5" y1="233.25" x2="71.47" y2="217.72" xlink:href="#Gray_Gradient_2"/><linearGradient id="Gray_Gradient_2-9" x1="16.75" y1="187.5" x2="32.28" y2="178.53" xlink:href="#Gray_Gradient_2"/><linearGradient id="Gray_Gradient_2-10" x1="0.01" y1="125" x2="17.94" y2="125" xlink:href="#Gray_Gradient_2"/><linearGradient id="Gray_Gradient_2-11" x1="16.75" y1="62.5" x2="32.28" y2="71.47" xlink:href="#Gray_Gradient_2"/><linearGradient id="Gray_Gradient_2-12" x1="62.5" y1="16.75" x2="71.47" y2="32.28" xlink:href="#Gray_Gradient_2"/><linearGradient id="Gray_Gradient_2-13" x1="138.01" y1="1.25" x2="136.91" y2="11.71" xlink:href="#Gray_Gradient_2"/><linearGradient id="Gray_Gradient_2-14" x1="150.87" y1="3.29" x2="148.68" y2="13.58" xlink:href="#Gray_Gradient_2"/><linearGradient id="Gray_Gradient_2-15" x1="163.45" y1="6.66" x2="160.2" y2="16.66" xlink:href="#Gray_Gradient_2"/><linearGradient id="Gray_Gradient_2-16" x1="175.61" y1="11.33" x2="171.33" y2="20.94" xlink:href="#Gray_Gradient_2"/><linearGradient id="Gray_Gradient_2-17" x1="198.14" y1="24.33" x2="191.96" y2="32.84" xlink:href="#Gray_Gradient_2"/><linearGradient id="Gray_Gradient_2-18" x1="208.26" y1="32.53" x2="201.22" y2="40.35" xlink:href="#Gray_Gradient_2"/><linearGradient id="Gray_Gradient_2-19" x1="217.47" y1="41.74" x2="209.65" y2="48.78" xlink:href="#Gray_Gradient_2"/><linearGradient id="Gray_Gradient_2-20" x1="225.67" y1="51.86" x2="217.16" y2="58.04" xlink:href="#Gray_Gradient_2"/><linearGradient id="Gray_Gradient_2-21" x1="238.67" y1="74.39" x2="229.06" y2="78.67" xlink:href="#Gray_Gradient_2"/><linearGradient id="Gray_Gradient_2-22" x1="243.34" y1="86.55" x2="233.34" y2="89.8" xlink:href="#Gray_Gradient_2"/><linearGradient id="Gray_Gradient_2-23" x1="246.71" y1="99.13" x2="236.42" y2="101.32" xlink:href="#Gray_Gradient_2"/><linearGradient id="Gray_Gradient_2-24" x1="248.75" y1="111.99" x2="238.29" y2="113.09" xlink:href="#Gray_Gradient_2"/><linearGradient id="Gray_Gradient_2-25" x1="248.75" y1="138.01" x2="238.29" y2="136.91" xlink:href="#Gray_Gradient_2"/><linearGradient id="Gray_Gradient_2-26" x1="246.71" y1="150.87" x2="236.42" y2="148.68" xlink:href="#Gray_Gradient_2"/><linearGradient id="Gray_Gradient_2-27" x1="243.34" y1="163.45" x2="233.34" y2="160.2" xlink:href="#Gray_Gradient_2"/><linearGradient id="Gray_Gradient_2-28" x1="238.67" y1="175.61" x2="229.06" y2="171.33" xlink:href="#Gray_Gradient_2"/><linearGradient id="Gray_Gradient_2-29" x1="225.67" y1="198.14" x2="217.16" y2="191.96" xlink:href="#Gray_Gradient_2"/><linearGradient id="Gray_Gradient_2-30" x1="217.47" y1="208.26" x2="209.65" y2="201.22" xlink:href="#Gray_Gradient_2"/><linearGradient id="Gray_Gradient_2-31" x1="208.26" y1="217.47" x2="201.22" y2="209.65" xlink:href="#Gray_Gradient_2"/><linearGradient id="Gray_Gradient_2-32" x1="198.14" y1="225.67" x2="191.96" y2="217.16" xlink:href="#Gray_Gradient_2"/><linearGradient id="Gray_Gradient_2-33" x1="175.61" y1="238.67" x2="171.33" y2="229.06" xlink:href="#Gray_Gradient_2"/><linearGradient id="Gray_Gradient_2-34" x1="163.45" y1="243.34" x2="160.2" y2="233.34" xlink:href="#Gray_Gradient_2"/><linearGradient id="Gray_Gradient_2-35" x1="150.87" y1="246.71" x2="148.68" y2="236.42" xlink:href="#Gray_Gradient_2"/><linearGradient id="Gray_Gradient_2-36" x1="138.01" y1="248.75" x2="136.91" y2="238.29" xlink:href="#Gray_Gradient_2"/><linearGradient id="Gray_Gradient_2-37" x1="111.99" y1="248.75" x2="113.09" y2="238.29" xlink:href="#Gray_Gradient_2"/><linearGradient id="Gray_Gradient_2-38" x1="99.13" y1="246.71" x2="101.32" y2="236.42" xlink:href="#Gray_Gradient_2"/><linearGradient id="Gray_Gradient_2-39" x1="86.55" y1="243.34" x2="89.8" y2="233.34" xlink:href="#Gray_Gradient_2"/><linearGradient id="Gray_Gradient_2-40" x1="74.39" y1="238.67" x2="78.67" y2="229.06" xlink:href="#Gray_Gradient_2"/><linearGradient id="Gray_Gradient_2-41" x1="51.86" y1="225.67" x2="58.04" y2="217.16" xlink:href="#Gray_Gradient_2"/><linearGradient id="Gray_Gradient_2-42" x1="41.74" y1="217.47" x2="48.78" y2="209.65" xlink:href="#Gray_Gradient_2"/><linearGradient id="Gray_Gradient_2-43" x1="32.53" y1="208.26" x2="40.35" y2="201.22" xlink:href="#Gray_Gradient_2"/><linearGradient id="Gray_Gradient_2-44" x1="24.33" y1="198.14" x2="32.84" y2="191.96" xlink:href="#Gray_Gradient_2"/><linearGradient id="Gray_Gradient_2-45" x1="11.33" y1="175.61" x2="20.94" y2="171.33" xlink:href="#Gray_Gradient_2"/><linearGradient id="Gray_Gradient_2-46" x1="6.66" y1="163.45" x2="16.66" y2="160.2" xlink:href="#Gray_Gradient_2"/><linearGradient id="Gray_Gradient_2-47" x1="3.29" y1="150.87" x2="13.58" y2="148.68" xlink:href="#Gray_Gradient_2"/><linearGradient id="Gray_Gradient_2-48" x1="1.25" y1="138.01" x2="11.71" y2="136.91" xlink:href="#Gray_Gradient_2"/><linearGradient id="Gray_Gradient_2-49" x1="1.25" y1="111.99" x2="11.71" y2="113.09" xlink:href="#Gray_Gradient_2"/><linearGradient id="Gray_Gradient_2-50" x1="3.29" y1="99.13" x2="13.58" y2="101.32" xlink:href="#Gray_Gradient_2"/><linearGradient id="Gray_Gradient_2-51" x1="6.66" y1="86.55" x2="16.66" y2="89.8" xlink:href="#Gray_Gradient_2"/><linearGradient id="Gray_Gradient_2-52" x1="11.33" y1="74.39" x2="20.94" y2="78.67" xlink:href="#Gray_Gradient_2"/><linearGradient id="Gray_Gradient_2-53" x1="24.33" y1="51.86" x2="32.84" y2="58.04" xlink:href="#Gray_Gradient_2"/><linearGradient id="Gray_Gradient_2-54" x1="32.53" y1="41.74" x2="40.35" y2="48.78" xlink:href="#Gray_Gradient_2"/><linearGradient id="Gray_Gradient_2-55" x1="41.74" y1="32.53" x2="48.78" y2="40.35" xlink:href="#Gray_Gradient_2"/><linearGradient id="Gray_Gradient_2-56" x1="51.86" y1="24.33" x2="58.04" y2="32.84" xlink:href="#Gray_Gradient_2"/><linearGradient id="Gray_Gradient_2-57" x1="74.39" y1="11.33" x2="78.67" y2="20.94" xlink:href="#Gray_Gradient_2"/><linearGradient id="Gray_Gradient_2-58" x1="86.55" y1="6.66" x2="89.8" y2="16.66" xlink:href="#Gray_Gradient_2"/><linearGradient id="Gray_Gradient_2-59" x1="99.13" y1="3.29" x2="101.32" y2="13.58" xlink:href="#Gray_Gradient_2"/><linearGradient id="Gray_Gradient_2-60" x1="111.99" y1="1.25" x2="113.09" y2="11.71" xlink:href="#Gray_Gradient_2"/></defs><title>face-006</title><line class="cls-1" x1="125" y1="1.5" x2="125" y2="16.45"/><line class="cls-2" x1="186.75" y1="18.05" x2="179.28" y2="30.99"/><line class="cls-3" x1="231.95" y1="63.25" x2="219.01" y2="70.72"/><line class="cls-4" x1="248.5" y1="125" x2="233.55" y2="125"/><line class="cls-5" x1="231.95" y1="186.75" x2="219.01" y2="179.28"/><line class="cls-6" x1="186.75" y1="231.95" x2="179.28" y2="219.01"/><line class="cls-7" x1="125" y1="248.5" x2="125" y2="233.55"/><line class="cls-8" x1="63.25" y1="231.95" x2="70.72" y2="219.01"/><line class="cls-9" x1="18.05" y1="186.75" x2="30.99" y2="179.28"/><line class="cls-10" x1="1.5" y1="125" x2="16.45" y2="125"/><line class="cls-11" x1="18.05" y1="63.25" x2="30.99" y2="70.72"/><line class="cls-12" x1="63.25" y1="18.05" x2="70.72" y2="30.99"/><line class="cls-13" x1="137.98" y1="1.5" x2="136.93" y2="11.46"/><line class="cls-14" x1="150.82" y1="3.53" x2="148.74" y2="13.33"/><line class="cls-15" x1="163.37" y1="6.9" x2="160.28" y2="16.43"/><line class="cls-16" x1="175.51" y1="11.56" x2="171.43" y2="20.71"/><line class="cls-17" x1="197.99" y1="24.54" x2="192.1" y2="32.64"/><line class="cls-18" x1="208.09" y1="32.72" x2="201.39" y2="40.16"/><line class="cls-19" x1="217.28" y1="41.91" x2="209.84" y2="48.61"/><line class="cls-20" x1="225.46" y1="52.01" x2="217.36" y2="57.9"/><line class="cls-21" x1="238.44" y1="74.49" x2="229.29" y2="78.57"/><line class="cls-22" x1="243.1" y1="86.63" x2="233.57" y2="89.72"/><line class="cls-23" x1="246.47" y1="99.18" x2="236.67" y2="101.26"/><line class="cls-24" x1="248.5" y1="112.02" x2="238.54" y2="113.07"/><line class="cls-25" x1="248.5" y1="137.98" x2="238.54" y2="136.93"/><line class="cls-26" x1="246.47" y1="150.82" x2="236.67" y2="148.74"/><line class="cls-27" x1="243.1" y1="163.37" x2="233.57" y2="160.28"/><line class="cls-28" x1="238.44" y1="175.51" x2="229.29" y2="171.43"/><line class="cls-29" x1="225.46" y1="197.99" x2="217.36" y2="192.1"/><line class="cls-30" x1="217.28" y1="208.09" x2="209.84" y2="201.39"/><line class="cls-31" x1="208.09" y1="217.28" x2="201.39" y2="209.84"/><line class="cls-32" x1="197.99" y1="225.46" x2="192.1" y2="217.36"/><line class="cls-33" x1="175.51" y1="238.44" x2="171.43" y2="229.29"/><line class="cls-34" x1="163.37" y1="243.1" x2="160.28" y2="233.57"/><line class="cls-35" x1="150.82" y1="246.47" x2="148.74" y2="236.67"/><line class="cls-36" x1="137.98" y1="248.5" x2="136.93" y2="238.54"/><line class="cls-37" x1="112.02" y1="248.5" x2="113.07" y2="238.54"/><line class="cls-38" x1="99.18" y1="246.47" x2="101.26" y2="236.67"/><line class="cls-39" x1="86.63" y1="243.1" x2="89.72" y2="233.57"/><line class="cls-40" x1="74.49" y1="238.44" x2="78.57" y2="229.29"/><line class="cls-41" x1="52.01" y1="225.46" x2="57.9" y2="217.36"/><line class="cls-42" x1="41.91" y1="217.28" x2="48.61" y2="209.84"/><line class="cls-43" x1="32.72" y1="208.09" x2="40.16" y2="201.39"/><line class="cls-44" x1="24.54" y1="197.99" x2="32.64" y2="192.1"/><line class="cls-45" x1="11.56" y1="175.51" x2="20.71" y2="171.43"/><line class="cls-46" x1="6.9" y1="163.37" x2="16.43" y2="160.28"/><line class="cls-47" x1="3.53" y1="150.82" x2="13.33" y2="148.74"/><line class="cls-48" x1="1.5" y1="137.98" x2="11.46" y2="136.93"/><line class="cls-49" x1="1.5" y1="112.02" x2="11.46" y2="113.07"/><line class="cls-50" x1="3.53" y1="99.18" x2="13.33" y2="101.26"/><line class="cls-51" x1="6.9" y1="86.63" x2="16.43" y2="89.72"/><line class="cls-52" x1="11.56" y1="74.49" x2="20.71" y2="78.57"/><line class="cls-53" x1="24.54" y1="52.01" x2="32.64" y2="57.9"/><line class="cls-54" x1="32.72" y1="41.91" x2="40.16" y2="48.61"/><line class="cls-55" x1="41.91" y1="32.72" x2="48.61" y2="40.16"/><line class="cls-56" x1="52.01" y1="24.54" x2="57.9" y2="32.64"/><line class="cls-57" x1="74.49" y1="11.56" x2="78.57" y2="20.71"/><line class="cls-58" x1="86.63" y1="6.9" x2="89.72" y2="16.43"/><line class="cls-59" x1="99.18" y1="3.53" x2="101.26" y2="13.33"/><line class="cls-60" x1="112.02" y1="1.5" x2="113.07" y2="11.46"/></svg>
