<svg xmlns="http://www.w3.org/2000/svg" viewBox="0 0 48 48">
  <path fill="#797676" d="M9.18 35.96 3.13 16.72h-.19l.16 2.57.03 3.38v13.3H1V14h3.45l5.68 18h.15l5.8-18h3.4v22h-2.26V19.29l.15-2.57h-.12L11.08 36Zm20.84 0-6.06-19.24h-.08l.15 2.57.04 3.38v13.3H21.9V14h3.45l5.68 18h.12L37 14h3.41v22H38.1V22.48l.04-3.2.15-2.56h-.12L31.96 36Z"/>
  <path fill="#a6a3a3" d="M47 19.84h-5.73v-1.1l2.23-2.83q.67-.8 1.12-1.43.45-.6.67-1.21.22-.64.22-1.36 0-.87-.41-1.32-.44-.46-1.11-.46-.63 0-1.12.27-.45.26-.93.75l-.6-.9q.53-.5 1.16-.87.67-.38 1.49-.38 1.23 0 1.9.76.74.75.74 2.07 0 .87-.3 1.59-.3.75-.79 1.43-.47.76-1.14 1.51l-1.8 2.23v.04h4.36Z"/>
</svg>

