<svg width="30" height="30" viewBox="0 0 30 30" fill="none" xmlns="http://www.w3.org/2000/svg">
<circle cx="15" cy="15" r="15" fill="#D8D8D8"/>
<path d="M13.5293 18.252C13.5488 15.6348 14.3496 14.834 15.6973 14.0137C16.5078 13.5254 17.123 12.7441 17.123 11.6504C17.123 10.3223 16.0879 9.47266 14.7988 9.48242C13.6855 9.47266 12.5625 10.1367 12.4551 11.748H10.6777C10.7754 9.375 12.5625 7.99805 14.7988 7.99805C17.25 7.99805 18.8418 9.57031 18.8418 11.7285C18.8418 13.2617 18.1191 14.3262 16.9082 15.0684C15.6875 15.8105 15.248 16.5625 15.209 18.252V18.3496H13.5293V18.252ZM13.1777 21.1816C13.1582 20.498 13.7441 19.9316 14.4277 19.9316C15.1211 19.9316 15.6875 20.498 15.6777 21.1816C15.6875 21.875 15.1211 22.4414 14.4277 22.4512C13.7441 22.4414 13.1582 21.875 13.1777 21.1816Z" fill="#F7F6FB"/>
</svg>
