<svg id="Hour_Markers_-_Doubles" data-name="Hour Markers - Doubles" xmlns="http://www.w3.org/2000/svg" viewBox="0 0 250 250"><defs><style>.cls-1,.cls-2{fill:none;stroke:#fff;stroke-linecap:round;stroke-miterlimit:10;}.cls-1{stroke-width:2.98px;}.cls-2{stroke-width:0.47px;}</style></defs><title>face-004</title><line class="cls-1" x1="122.01" y1="1.75" x2="122.01" y2="16.67"/><line class="cls-1" x1="186.62" y1="18.26" x2="179.17" y2="31.18"/><line class="cls-1" x1="231.74" y1="63.37" x2="218.82" y2="70.83"/><line class="cls-1" x1="248.25" y1="127.99" x2="233.33" y2="127.99"/><line class="cls-1" x1="231.74" y1="186.62" x2="218.82" y2="179.17"/><line class="cls-1" x1="186.63" y1="231.74" x2="179.17" y2="218.82"/><line class="cls-1" x1="127.99" y1="248.25" x2="127.99" y2="233.33"/><line class="cls-1" x1="63.38" y1="231.74" x2="70.83" y2="218.82"/><line class="cls-1" x1="18.26" y1="186.63" x2="31.18" y2="179.17"/><line class="cls-1" x1="1.75" y1="122.01" x2="16.67" y2="122.01"/><line class="cls-1" x1="18.26" y1="63.38" x2="31.18" y2="70.83"/><line class="cls-1" x1="63.37" y1="18.26" x2="70.83" y2="31.18"/><line class="cls-1" x1="127.99" y1="1.75" x2="127.99" y2="16.67"/><line class="cls-1" x1="248.25" y1="122.01" x2="233.33" y2="122.01"/><line class="cls-1" x1="122.01" y1="248.25" x2="122.01" y2="233.33"/><line class="cls-1" x1="1.75" y1="127.99" x2="16.67" y2="127.99"/><line class="cls-2" x1="134.41" y1="35.49" x2="133.65" y2="42.71"/><line class="cls-2" x1="143.71" y1="36.97" x2="142.2" y2="44.07"/><line class="cls-2" x1="152.81" y1="39.4" x2="150.57" y2="46.31"/><line class="cls-2" x1="161.61" y1="42.78" x2="158.65" y2="49.41"/><line class="cls-2" x1="170" y1="47.06" x2="166.37" y2="53.35"/><line class="cls-2" x1="177.9" y1="52.19" x2="173.63" y2="58.06"/><line class="cls-2" x1="185.22" y1="58.12" x2="180.36" y2="63.51"/><line class="cls-2" x1="191.88" y1="64.78" x2="186.49" y2="69.64"/><line class="cls-2" x1="197.81" y1="72.1" x2="191.94" y2="76.37"/><line class="cls-2" x1="202.94" y1="80" x2="196.65" y2="83.63"/><line class="cls-2" x1="207.22" y1="88.39" x2="200.59" y2="91.35"/><line class="cls-2" x1="210.6" y1="97.19" x2="203.69" y2="99.43"/><line class="cls-2" x1="213.03" y1="106.29" x2="205.93" y2="107.8"/><line class="cls-2" x1="214.51" y1="115.59" x2="207.29" y2="116.35"/><line class="cls-2" x1="215" y1="125" x2="207.74" y2="125"/><line class="cls-2" x1="214.51" y1="134.41" x2="207.29" y2="133.65"/><line class="cls-2" x1="213.03" y1="143.71" x2="205.93" y2="142.2"/><line class="cls-2" x1="210.6" y1="152.81" x2="203.69" y2="150.57"/><line class="cls-2" x1="207.22" y1="161.61" x2="200.59" y2="158.65"/><line class="cls-2" x1="202.94" y1="170" x2="196.65" y2="166.37"/><line class="cls-2" x1="197.81" y1="177.9" x2="191.94" y2="173.63"/><line class="cls-2" x1="191.88" y1="185.22" x2="186.49" y2="180.36"/><line class="cls-2" x1="185.22" y1="191.88" x2="180.36" y2="186.49"/><line class="cls-2" x1="177.9" y1="197.81" x2="173.63" y2="191.94"/><line class="cls-2" x1="170" y1="202.94" x2="166.37" y2="196.65"/><line class="cls-2" x1="161.61" y1="207.22" x2="158.65" y2="200.59"/><line class="cls-2" x1="152.81" y1="210.6" x2="150.57" y2="203.69"/><line class="cls-2" x1="143.71" y1="213.03" x2="142.2" y2="205.93"/><line class="cls-2" x1="134.41" y1="214.51" x2="133.65" y2="207.29"/><line class="cls-2" x1="125" y1="215" x2="125" y2="207.74"/><line class="cls-2" x1="115.59" y1="214.51" x2="116.35" y2="207.29"/><line class="cls-2" x1="106.29" y1="213.03" x2="107.8" y2="205.93"/><line class="cls-2" x1="97.19" y1="210.6" x2="99.43" y2="203.69"/><line class="cls-2" x1="88.39" y1="207.22" x2="91.35" y2="200.59"/><line class="cls-2" x1="80" y1="202.94" x2="83.63" y2="196.65"/><line class="cls-2" x1="72.1" y1="197.81" x2="76.37" y2="191.94"/><line class="cls-2" x1="64.78" y1="191.88" x2="69.64" y2="186.49"/><line class="cls-2" x1="58.12" y1="185.22" x2="63.51" y2="180.36"/><line class="cls-2" x1="52.19" y1="177.9" x2="58.06" y2="173.63"/><line class="cls-2" x1="47.06" y1="170" x2="53.35" y2="166.37"/><line class="cls-2" x1="42.78" y1="161.61" x2="49.41" y2="158.65"/><line class="cls-2" x1="39.4" y1="152.81" x2="46.31" y2="150.57"/><line class="cls-2" x1="36.97" y1="143.71" x2="44.07" y2="142.2"/><line class="cls-2" x1="35.49" y1="134.41" x2="42.71" y2="133.65"/><line class="cls-2" x1="35" y1="125" x2="42.26" y2="125"/><line class="cls-2" x1="35.49" y1="115.59" x2="42.71" y2="116.35"/><line class="cls-2" x1="36.97" y1="106.29" x2="44.07" y2="107.8"/><line class="cls-2" x1="39.4" y1="97.19" x2="46.31" y2="99.43"/><line class="cls-2" x1="42.78" y1="88.39" x2="49.41" y2="91.35"/><line class="cls-2" x1="47.06" y1="80" x2="53.35" y2="83.63"/><line class="cls-2" x1="52.19" y1="72.1" x2="58.06" y2="76.37"/><line class="cls-2" x1="58.12" y1="64.78" x2="63.51" y2="69.64"/><line class="cls-2" x1="64.78" y1="58.12" x2="69.64" y2="63.51"/><line class="cls-2" x1="72.1" y1="52.19" x2="76.37" y2="58.06"/><line class="cls-2" x1="80" y1="47.06" x2="83.63" y2="53.35"/><line class="cls-2" x1="88.39" y1="42.78" x2="91.35" y2="49.41"/><line class="cls-2" x1="97.19" y1="39.4" x2="99.43" y2="46.31"/><line class="cls-2" x1="106.29" y1="36.97" x2="107.8" y2="44.07"/><line class="cls-2" x1="115.59" y1="35.49" x2="116.35" y2="42.71"/><line class="cls-2" x1="125" y1="35" x2="125" y2="42.26"/></svg>
