<svg id="Hour_Markers_-_Singlets" data-name="Hour Markers - Singlets" xmlns="http://www.w3.org/2000/svg" viewBox="0 0 250 250"><defs><style>.cls-1,.cls-2{fill:none;stroke:#fff;stroke-linecap:round;stroke-miterlimit:10;}.cls-2{stroke-width:0.5px;}</style></defs><title>face-001</title><line class="cls-1" x1="125" y1="1.25" x2="125" y2="16.23"/><line class="cls-1" x1="186.87" y1="17.83" x2="179.39" y2="30.8"/><line class="cls-1" x1="232.17" y1="63.12" x2="219.2" y2="70.61"/><line class="cls-1" x1="248.75" y1="125" x2="233.77" y2="125"/><line class="cls-1" x1="232.17" y1="186.87" x2="219.2" y2="179.39"/><line class="cls-1" x1="186.88" y1="232.17" x2="179.39" y2="219.2"/><line class="cls-1" x1="125" y1="248.75" x2="125" y2="233.77"/><line class="cls-1" x1="63.13" y1="232.17" x2="70.61" y2="219.2"/><line class="cls-1" x1="17.83" y1="186.88" x2="30.8" y2="179.39"/><line class="cls-1" x1="1.25" y1="125" x2="16.23" y2="125"/><line class="cls-1" x1="17.83" y1="63.13" x2="30.8" y2="70.61"/><line class="cls-1" x1="63.12" y1="17.83" x2="70.61" y2="30.8"/><line class="cls-2" x1="138.01" y1="1.25" x2="136.96" y2="11.23"/><line class="cls-2" x1="150.87" y1="3.29" x2="148.78" y2="13.11"/><line class="cls-2" x1="163.45" y1="6.66" x2="160.35" y2="16.21"/><line class="cls-2" x1="175.61" y1="11.33" x2="171.53" y2="20.5"/><line class="cls-2" x1="198.14" y1="24.33" x2="192.24" y2="32.45"/><line class="cls-2" x1="208.26" y1="32.53" x2="201.54" y2="39.99"/><line class="cls-2" x1="217.47" y1="41.74" x2="210.01" y2="48.46"/><line class="cls-2" x1="225.67" y1="51.86" x2="217.55" y2="57.76"/><line class="cls-2" x1="238.67" y1="74.39" x2="229.5" y2="78.47"/><line class="cls-2" x1="243.34" y1="86.55" x2="233.79" y2="89.65"/><line class="cls-2" x1="246.71" y1="99.13" x2="236.89" y2="101.22"/><line class="cls-2" x1="248.75" y1="111.99" x2="238.77" y2="113.04"/><line class="cls-2" x1="248.75" y1="138.01" x2="238.77" y2="136.96"/><line class="cls-2" x1="246.71" y1="150.87" x2="236.89" y2="148.78"/><line class="cls-2" x1="243.34" y1="163.45" x2="233.79" y2="160.35"/><line class="cls-2" x1="238.67" y1="175.61" x2="229.5" y2="171.53"/><line class="cls-2" x1="225.67" y1="198.14" x2="217.55" y2="192.24"/><line class="cls-2" x1="217.47" y1="208.26" x2="210.01" y2="201.54"/><line class="cls-2" x1="208.26" y1="217.47" x2="201.54" y2="210.01"/><line class="cls-2" x1="198.14" y1="225.67" x2="192.24" y2="217.55"/><line class="cls-2" x1="175.61" y1="238.67" x2="171.53" y2="229.5"/><line class="cls-2" x1="163.45" y1="243.34" x2="160.35" y2="233.79"/><line class="cls-2" x1="150.87" y1="246.71" x2="148.78" y2="236.89"/><line class="cls-2" x1="138.01" y1="248.75" x2="136.96" y2="238.77"/><line class="cls-2" x1="111.99" y1="248.75" x2="113.04" y2="238.77"/><line class="cls-2" x1="99.13" y1="246.71" x2="101.22" y2="236.89"/><line class="cls-2" x1="86.55" y1="243.34" x2="89.65" y2="233.79"/><line class="cls-2" x1="74.39" y1="238.67" x2="78.47" y2="229.5"/><line class="cls-2" x1="51.86" y1="225.67" x2="57.76" y2="217.55"/><line class="cls-2" x1="41.74" y1="217.47" x2="48.46" y2="210.01"/><line class="cls-2" x1="32.53" y1="208.26" x2="39.99" y2="201.54"/><line class="cls-2" x1="24.33" y1="198.14" x2="32.45" y2="192.24"/><line class="cls-2" x1="11.33" y1="175.61" x2="20.5" y2="171.53"/><line class="cls-2" x1="6.66" y1="163.45" x2="16.21" y2="160.35"/><line class="cls-2" x1="3.29" y1="150.87" x2="13.11" y2="148.78"/><line class="cls-2" x1="1.25" y1="138.01" x2="11.23" y2="136.96"/><line class="cls-2" x1="1.25" y1="111.99" x2="11.23" y2="113.04"/><line class="cls-2" x1="3.29" y1="99.13" x2="13.11" y2="101.22"/><line class="cls-2" x1="6.66" y1="86.55" x2="16.21" y2="89.65"/><line class="cls-2" x1="11.33" y1="74.39" x2="20.5" y2="78.47"/><line class="cls-2" x1="24.33" y1="51.86" x2="32.45" y2="57.76"/><line class="cls-2" x1="32.53" y1="41.74" x2="39.99" y2="48.46"/><line class="cls-2" x1="41.74" y1="32.53" x2="48.46" y2="39.99"/><line class="cls-2" x1="51.86" y1="24.33" x2="57.76" y2="32.45"/><line class="cls-2" x1="74.39" y1="11.33" x2="78.47" y2="20.5"/><line class="cls-2" x1="86.55" y1="6.66" x2="89.65" y2="16.21"/><line class="cls-2" x1="99.13" y1="3.29" x2="101.22" y2="13.11"/><line class="cls-2" x1="111.99" y1="1.25" x2="113.04" y2="11.23"/></svg>