<svg id="Hour_Markers_-_Roman" data-name="Hour Markers - Roman" xmlns="http://www.w3.org/2000/svg" viewBox="0 0 150 150"><defs><style>.cls-1{fill:#fff;}.cls-2{fill:none;stroke:#fff;stroke-linecap:round;stroke-miterlimit:10;stroke-width:0.5px;}</style></defs><title>faces</title><path class="cls-1" d="M64.35,4.45V3.88Q65.5,4,66.45,4t2.44-.11V4.45a3.43,3.43,0,0,0-1.07.43,0.27,0.27,0,0,0-.1.21,2.31,2.31,0,0,0,.24.68q1,2.15,1.74,3.42,1.19-2,2.11-3.81A1.37,1.37,0,0,0,72,5a0.25,0.25,0,0,0-.1-0.19,4.22,4.22,0,0,0-1-.33V3.88Q72.16,4,72.86,4a16.81,16.81,0,0,0,1.77-.11V4.45A3.49,3.49,0,0,0,73.38,5a6.62,6.62,0,0,0-1,1.42q-1.3,2.24-2.13,3.84,0.62,1.33,1.62,3.25l1.49,2.85a1.32,1.32,0,0,0,.29.31,4.78,4.78,0,0,0,1.15.51v0.58q-1.3-.11-2.08-0.11t-2.28.11V17.15a6.18,6.18,0,0,0,1-.42,0.3,0.3,0,0,0,.08-0.22,1.84,1.84,0,0,0-.21-0.67q-1-2.22-2-4-0.88,1.43-2.19,3.95a2.28,2.28,0,0,0-.27.69,0.39,0.39,0,0,0,.11.27,2.31,2.31,0,0,0,.77.31L68,17.15v0.58a20.49,20.49,0,0,0-2.05-.11,11.91,11.91,0,0,0-1.67.11V17.15a3,3,0,0,0,1.14-.51,10.4,10.4,0,0,0,1.19-1.76q1.54-2.7,2.24-4Q68.12,9.38,66.62,6.5a6.71,6.71,0,0,0-.89-1.4A4.91,4.91,0,0,0,64.35,4.45Z"/><path class="cls-1" d="M80.28,3.88V4.45l-0.38.11A2.47,2.47,0,0,0,78.77,5a1.65,1.65,0,0,0-.15.89V6.22l0,3.92,0,5.7a1.6,1.6,0,0,0,.15.87,2,2,0,0,0,1,.32l0.49,0.12v0.58q-1.18-.11-2.27-0.11t-2.47.11V17.15l0.32-.1A2.74,2.74,0,0,0,77,16.63a1.88,1.88,0,0,0,.15-1V15.18l0-3.58q0-5.52,0-6.11A0.84,0.84,0,0,0,77,5a2.77,2.77,0,0,0-1.1-.42l-0.39-.13V3.88Q77.12,4,78,4T80.28,3.88Z"/><path class="cls-1" d="M85.75,3.88V4.45l-0.38.11A2.48,2.48,0,0,0,84.24,5a1.67,1.67,0,0,0-.15.89V6.22l0,3.92,0,5.7a1.59,1.59,0,0,0,.15.87,2,2,0,0,0,1,.32l0.49,0.12v0.58q-1.18-.11-2.27-0.11T81,17.72V17.15l0.32-.1a2.74,2.74,0,0,0,1.19-.41,1.87,1.87,0,0,0,.15-1V15.18l0-3.58q0-5.52,0-6.11A0.83,0.83,0,0,0,82.49,5a2.76,2.76,0,0,0-1.1-.42L81,4.45V3.88Q82.59,4,83.49,4T85.75,3.88Z"/><path class="cls-1" d="M112.66,14.61l-0.29.5L112,15a2.49,2.49,0,0,0-1.19-.2,1.66,1.66,0,0,0-.58.7l-0.17.3-2,3.38-2.83,4.95a1.58,1.58,0,0,0-.3.83,2,2,0,0,0,.73.79L106,26.1l-0.29.5q-1-.68-1.91-1.23t-2.2-1.14l0.29-.5,0.33,0.08a2.74,2.74,0,0,0,1.24.24,1.88,1.88,0,0,0,.61-0.76l0.23-.43,1.81-3.09q2.76-4.78,3-5.3a0.84,0.84,0,0,0,.11-0.51,2.77,2.77,0,0,0-.75-0.92l-0.27-.3,0.29-.5q1.32,0.89,2.1,1.33T112.66,14.61Z"/><path class="cls-1" d="M136.43,39.17l-0.5.29-0.28-.28a2.49,2.49,0,0,0-.93-0.76,1.67,1.67,0,0,0-.85.31l-0.29.17-3.42,1.93-4.92,2.87a1.59,1.59,0,0,0-.68.56,2,2,0,0,0,.24,1.05q0.06,0.16.14,0.48l-0.5.29q-0.5-1.07-1-2T122.07,42l0.5-.29a2.24,2.24,0,0,1,.25.23,2.75,2.75,0,0,0,1,.82,1.87,1.87,0,0,0,.91-0.35l0.42-.26,3.11-1.77q4.78-2.76,5.28-3.07a0.84,0.84,0,0,0,.35-0.38,2.77,2.77,0,0,0-.19-1.17c0-.09,0-0.22-0.08-0.4l0.5-.29q0.7,1.43,1.15,2.21T136.43,39.17Z"/><path class="cls-1" d="M139.17,43.91l-0.5.29-0.28-.28a2.48,2.48,0,0,0-.93-0.76,1.66,1.66,0,0,0-.85.31l-0.3.17-3.42,1.93L128,48.44a1.6,1.6,0,0,0-.68.56,2,2,0,0,0,.24,1.05c0,0.11.09,0.27,0.14,0.48l-0.5.29q-0.5-1.08-1-2t-1.33-2.09l0.5-.29a2.13,2.13,0,0,1,.25.23,2.76,2.76,0,0,0,1,.82,1.88,1.88,0,0,0,.91-0.35l0.42-.26,3.11-1.77q4.78-2.76,5.28-3.07a0.83,0.83,0,0,0,.35-0.38,2.77,2.77,0,0,0-.19-1.17c0-.09,0-0.22-0.08-0.4l0.5-.29q0.7,1.43,1.15,2.21T139.17,43.91Z"/><path class="cls-1" d="M146.12,71.92h-0.58c-0.05-.17-0.09-0.3-0.11-0.38a2.49,2.49,0,0,0-.42-1.13,1.67,1.67,0,0,0-.89-0.15h-0.34l-3.92,0-5.7,0a1.59,1.59,0,0,0-.87.15,2,2,0,0,0-.32,1q0,0.17-.12.49h-0.58q0.11-1.18.11-2.27t-0.11-2.47h0.58a2.06,2.06,0,0,1,.1.32,2.75,2.75,0,0,0,.42,1.19,1.87,1.87,0,0,0,1,.15h0.49l3.58,0q5.52,0,6.11,0a0.84,0.84,0,0,0,.5-0.16,2.75,2.75,0,0,0,.42-1.1l0.13-.39h0.58Q146,68.76,146,69.66T146.12,71.92Z"/><path class="cls-1" d="M146.12,77.39h-0.58c-0.05-.17-0.09-0.3-0.11-0.38a2.48,2.48,0,0,0-.42-1.13,1.66,1.66,0,0,0-.89-0.15h-0.34l-3.92,0-5.7,0a1.6,1.6,0,0,0-.87.15,2,2,0,0,0-.32,1c0,0.11-.06.28-0.12,0.49h-0.58c0.07-.79.11-1.54,0.11-2.27s0-1.58-.11-2.47h0.58a2.06,2.06,0,0,1,.1.32,2.75,2.75,0,0,0,.42,1.19,1.87,1.87,0,0,0,1,.15h0.49l3.58,0q5.52,0,6.11,0a0.84,0.84,0,0,0,.5-0.16,2.75,2.75,0,0,0,.42-1.1l0.13-.39h0.58Q146,74.23,146,75.13C146,75.79,146.05,76.55,146.12,77.39Z"/><path class="cls-1" d="M146.12,82.87h-0.58c-0.05-.17-0.09-0.3-0.11-0.38a2.49,2.49,0,0,0-.42-1.13,1.67,1.67,0,0,0-.89-0.15h-0.34l-3.92,0-5.7,0a1.59,1.59,0,0,0-.87.15,2,2,0,0,0-.32,1q0,0.17-.12.49h-0.58q0.11-1.18.11-2.27t-0.11-2.47h0.58a2,2,0,0,1,.1.32,2.75,2.75,0,0,0,.42,1.19,1.87,1.87,0,0,0,1,.15h0.49l3.58,0q5.52,0,6.11,0a0.84,0.84,0,0,0,.5-0.16,2.75,2.75,0,0,0,.42-1.1l0.13-.39h0.58Q146,79.71,146,80.6T146.12,82.87Z"/><path class="cls-1" d="M138,108.11l-0.5-.29c0-.17.07-0.3,0.1-0.38a2.46,2.46,0,0,0,.2-1.19,1.66,1.66,0,0,0-.7-0.58l-0.3-.17-3.38-2-4.95-2.83a1.59,1.59,0,0,0-.83-0.3,2,2,0,0,0-.79.73l-0.35.37-0.5-.29q0.68-1,1.23-1.91t1.14-2.2l0.5,0.29a1.9,1.9,0,0,1-.08.33,2.77,2.77,0,0,0-.23,1.24,1.86,1.86,0,0,0,.76.61l0.43,0.23,3.09,1.81q4.78,2.76,5.3,3a0.84,0.84,0,0,0,.51.11,2.75,2.75,0,0,0,.92-0.75l0.3-.27,0.5,0.29q-0.89,1.32-1.33,2.1T138,108.11Z"/><path class="cls-1" d="M122.85,106.16l0.24-.42q3.7,1,8.42,2.18,3.93,1,4.36,1a1.11,1.11,0,0,0,.48,0,4.85,4.85,0,0,0,1-.7l0.5,0.29q-0.88,1.32-1.13,1.75-0.35.62-.95,1.85l-0.5-.29c0-.09,0-0.16,0-0.21a2.57,2.57,0,0,0,.1-0.92,0.48,0.48,0,0,0-.22-0.28l-0.2-.09q-0.68-.24-4.21-1.16l-5.12-1.35q2.24,2.33,4.19,4.24,2.44,2.39,2.72,2.62l0.11,0.08a0.42,0.42,0,0,0,.32.06,3.73,3.73,0,0,0,1-.68l0.47,0.27-0.29.44q-0.63.94-.79,1.22a12.23,12.23,0,0,0-.65,1.34l-0.47-.27a3,3,0,0,0,.08-1.07,2.35,2.35,0,0,0-.54-0.8q-0.94-1.06-5.75-5.92Z"/><path class="cls-1" d="M103.21,124.55l0.42-.24q2.68,2.75,6.2,6.1,2.93,2.79,3.27,3.06a1.14,1.14,0,0,0,.43.22,4.92,4.92,0,0,0,1.19-.12l0.29,0.5q-1.42.7-1.85,0.95-0.62.35-1.75,1.13l-0.29-.5,0.14-.16a2.55,2.55,0,0,0,.54-0.75,0.49,0.49,0,0,0-.05-0.35,1.17,1.17,0,0,0-.13-0.17q-0.47-.55-3.06-3.11l-3.75-3.73q0.77,3.14,1.51,5.77,0.92,3.29,1,3.63a0.78,0.78,0,0,0,.06.13,0.43,0.43,0,0,0,.25.21,3.81,3.81,0,0,0,1.17-.11l0.27,0.47-0.47.24q-1,.5-1.29.66a12,12,0,0,0-1.23.84l-0.27-.47a3,3,0,0,0,.61-0.88,2.36,2.36,0,0,0-.07-1q-0.29-1.39-2-8Z"/><path class="cls-1" d="M77.4,132h0.48q1,3.72,2.32,8.38,1.14,3.88,1.3,4.28a1.14,1.14,0,0,0,.26.41,4.91,4.91,0,0,0,1.09.49v0.58Q81.28,146,80.78,146q-0.71,0-2.08.11v-0.58l0.2-.07a2.53,2.53,0,0,0,.84-0.37,0.47,0.47,0,0,0,.13-0.33,1.17,1.17,0,0,0,0-.21q-0.13-.71-1.1-4.23l-1.39-5.1q-0.9,3.1-1.58,5.75-0.85,3.31-.91,3.67a0.75,0.75,0,0,0,0,.14,0.43,0.43,0,0,0,.11.3,3.74,3.74,0,0,0,1.07.49v0.55l-0.53,0Q74.39,146,74.07,146a12.15,12.15,0,0,0-1.49.11v-0.55a3,3,0,0,0,1-.46,2.34,2.34,0,0,0,.42-0.87q0.45-1.35,2.25-7.94Z"/><path class="cls-1" d="M67.38,146.12v-0.58l0.38-.11a2.49,2.49,0,0,0,1.13-.42,1.67,1.67,0,0,0,.15-0.89v-0.34l0-3.92,0-5.7a1.59,1.59,0,0,0-.15-0.87,2,2,0,0,0-1-.32l-0.49-.12v-0.58q1.18,0.11,2.27.11t2.47-.11v0.58l-0.32.1a2.75,2.75,0,0,0-1.19.42,1.87,1.87,0,0,0-.15,1v0.49l0,3.58q0,5.52,0,6.11a0.84,0.84,0,0,0,.16.5,2.75,2.75,0,0,0,1.1.42l0.39,0.13v0.58Q70.53,146,69.64,146T67.38,146.12Z"/><path class="cls-1" d="M51,126.93l0.42,0.24q-1,3.7-2.18,8.42-1,3.93-1,4.36a1.14,1.14,0,0,0,0,.48,4.87,4.87,0,0,0,.7,1l-0.29.5q-1.31-.88-1.75-1.13-0.62-.36-1.85-0.95l0.29-.5,0.21,0a2.52,2.52,0,0,0,.92.1,0.47,0.47,0,0,0,.28-0.22,1.13,1.13,0,0,0,.09-0.2q0.24-.68,1.16-4.21l1.35-5.12Q47,132,45.1,133.91q-2.39,2.44-2.62,2.72l-0.08.11a0.43,0.43,0,0,0-.06.32,3.74,3.74,0,0,0,.68,1l-0.27.47-0.44-.29q-0.94-.63-1.21-0.79a12.38,12.38,0,0,0-1.34-.65l0.27-.47a3,3,0,0,0,1.07.08,2.33,2.33,0,0,0,.8-0.54q1.06-.94,5.92-5.75Z"/><path class="cls-1" d="M35.24,134.16l0.29-.5,0.38,0.1a2.49,2.49,0,0,0,1.19.2,1.68,1.68,0,0,0,.58-0.7l0.17-.3,2-3.38,2.83-4.95a1.6,1.6,0,0,0,.3-0.83,2,2,0,0,0-.73-0.79l-0.37-.35,0.29-.5q1,0.68,1.91,1.23t2.2,1.14L46,125,45.66,125a2.75,2.75,0,0,0-1.24-.24,1.88,1.88,0,0,0-.61.76l-0.23.43L41.77,129q-2.76,4.78-3,5.3a0.83,0.83,0,0,0-.11.51,2.77,2.77,0,0,0,.75.92l0.27,0.3-0.29.5q-1.32-.89-2.1-1.33T35.24,134.16Z"/><path class="cls-1" d="M30.5,131.42l0.29-.5,0.38,0.1a2.49,2.49,0,0,0,1.19.2,1.67,1.67,0,0,0,.58-0.7l0.17-.3,2-3.38,2.83-4.95a1.6,1.6,0,0,0,.31-0.83,2,2,0,0,0-.73-0.79l-0.37-.35,0.29-.5q1,0.68,1.91,1.23t2.2,1.14l-0.29.5-0.33-.08a2.75,2.75,0,0,0-1.24-.24,1.88,1.88,0,0,0-.61.76l-0.23.43L37,126.27q-2.76,4.78-3,5.3a0.83,0.83,0,0,0-.11.51,2.77,2.77,0,0,0,.75.92l0.27,0.3-0.29.5q-1.32-.89-2.1-1.33T30.5,131.42Z"/><path class="cls-1" d="M29.59,110.34l0.24,0.42q-2.74,2.68-6.1,6.2-2.79,2.93-3.06,3.27a1.14,1.14,0,0,0-.22.43,4.88,4.88,0,0,0,.12,1.19l-0.5.29q-0.7-1.42-.95-1.85-0.36-.62-1.13-1.75l0.5-.29,0.16,0.14a2.49,2.49,0,0,0,.75.54,0.47,0.47,0,0,0,.35-0.05l0.17-.13q0.55-.47,3.11-3.06l3.73-3.75q-3.14.77-5.77,1.51-3.29.92-3.63,1l-0.13.06a0.42,0.42,0,0,0-.21.25,3.72,3.72,0,0,0,.11,1.17l-0.47.27-0.24-.47q-0.5-1-.66-1.29a12.13,12.13,0,0,0-.83-1.23l0.47-.27a3,3,0,0,0,.88.61,2.36,2.36,0,0,0,1-.07q1.39-.29,8-2Z"/><path class="cls-1" d="M12.34,108.73l0.5-.29,0.28,0.28a2.49,2.49,0,0,0,.93.76,1.68,1.68,0,0,0,.85-0.31l0.3-.17,3.42-1.93,4.92-2.87a1.6,1.6,0,0,0,.68-0.56,2,2,0,0,0-.24-1.05c0-.11-0.09-0.27-0.14-0.48l0.5-.29q0.5,1.07,1,2t1.33,2.09l-0.5.29A2.08,2.08,0,0,1,26,106a2.75,2.75,0,0,0-1-.82,1.87,1.87,0,0,0-.91.35l-0.42.26-3.11,1.77q-4.78,2.76-5.28,3.07a0.83,0.83,0,0,0-.35.38,2.76,2.76,0,0,0,.19,1.17c0,0.09,0,.22.08,0.4l-0.5.29q-0.7-1.43-1.15-2.2T12.34,108.73Z"/><path class="cls-1" d="M9.6,104l0.5-.29L10.38,104a2.49,2.49,0,0,0,.93.76,1.67,1.67,0,0,0,.85-0.31l0.3-.17,3.42-1.93,4.92-2.87a1.6,1.6,0,0,0,.68-0.56,2,2,0,0,0-.24-1.05c0-.11-0.09-0.27-0.14-0.48l0.5-.29q0.5,1.07,1,2T24,101.18l-0.5.29a2.08,2.08,0,0,1-.25-0.23,2.73,2.73,0,0,0-1-.82,1.86,1.86,0,0,0-.91.35l-0.42.26-3.11,1.77q-4.78,2.76-5.28,3.07a0.84,0.84,0,0,0-.35.39,2.76,2.76,0,0,0,.19,1.17c0,0.09,0,.22.08,0.4l-0.5.29q-0.7-1.43-1.15-2.21T9.6,104Z"/><path class="cls-1" d="M6.87,99.25L7.36,99l0.28,0.28a2.49,2.49,0,0,0,.93.76,1.67,1.67,0,0,0,.85-0.31l0.3-.17,3.42-1.93,4.92-2.87a1.6,1.6,0,0,0,.68-0.56,2,2,0,0,0-.24-1.05q-0.06-.16-0.14-0.48l0.5-.29q0.5,1.07,1,2t1.33,2.09l-0.5.29a2.11,2.11,0,0,1-.25-0.23,2.73,2.73,0,0,0-1-.82,1.86,1.86,0,0,0-.91.35l-0.42.26L15.1,98.05q-4.78,2.76-5.28,3.07a0.84,0.84,0,0,0-.35.39,2.76,2.76,0,0,0,.19,1.17c0,0.09,0,.22.08,0.4l-0.5.29q-0.7-1.43-1.15-2.2T6.87,99.25Z"/><path class="cls-1" d="M3.88,78.23H4.45c0.05,0.17.09,0.3,0.11,0.38A2.48,2.48,0,0,0,5,79.74a1.67,1.67,0,0,0,.89.15H6.22l3.92,0,5.7,0a1.59,1.59,0,0,0,.87-0.15,2,2,0,0,0,.32-1q0-.17.12-0.49h0.58q-0.11,1.18-.11,2.27T17.72,83H17.15a2.06,2.06,0,0,1-.1-0.32,2.74,2.74,0,0,0-.41-1.19,1.87,1.87,0,0,0-1-.15H15.18l-3.58,0q-5.52,0-6.11,0a0.83,0.83,0,0,0-.5.16,2.76,2.76,0,0,0-.42,1.1L4.45,83H3.88Q4,81.39,4,80.49T3.88,78.23Z"/><path class="cls-1" d="M4.45,77.44H3.88Q4,76.3,4,75.34T3.88,72.9H4.45A3.43,3.43,0,0,0,4.88,74a0.27,0.27,0,0,0,.21.1,2.31,2.31,0,0,0,.68-0.24q2.15-1,3.42-1.74Q7.15,70.9,5.38,70A1.37,1.37,0,0,0,5,69.81a0.25,0.25,0,0,0-.19.1,4.22,4.22,0,0,0-.33,1H3.88Q4,69.63,4,68.94a16.81,16.81,0,0,0-.11-1.77H4.45A3.49,3.49,0,0,0,5,68.41a6.62,6.62,0,0,0,1.42,1q2.24,1.3,3.84,2.13,1.33-.62,3.25-1.62l2.85-1.49a1.32,1.32,0,0,0,.31-0.29A4.78,4.78,0,0,0,17.15,67h0.58q-0.11,1.3-.11,2.08t0.11,2.28H17.15a6.18,6.18,0,0,0-.42-1,0.3,0.3,0,0,0-.22-0.08,1.84,1.84,0,0,0-.67.21q-2.22,1-4,2,1.43,0.88,3.95,2.19a2.29,2.29,0,0,0,.69.27,0.39,0.39,0,0,0,.27-0.11A2.31,2.31,0,0,0,17.08,74l0.07-.21h0.58a20.5,20.5,0,0,0-.11,2.05,11.92,11.92,0,0,0,.11,1.67H17.15a3,3,0,0,0-.51-1.14,10.37,10.37,0,0,0-1.76-1.19q-2.7-1.55-4-2.24-1.45.68-4.32,2.19a6.74,6.74,0,0,0-1.4.89A4.93,4.93,0,0,0,4.45,77.44Z"/><path class="cls-1" d="M11.35,44.22l-0.5-.29Q11.51,43,12,42.16T13.12,40l0.5,0.29a3.45,3.45,0,0,0-.16,1.14,0.27,0.27,0,0,0,.13.19,2.32,2.32,0,0,0,.71.13q2.37,0.19,3.83.2-1.18-2-2.25-3.73a1.4,1.4,0,0,0-.27-0.34,0.25,0.25,0,0,0-.21,0,4.16,4.16,0,0,0-.76.66l-0.5-.29q0.71-1,1.06-1.61A16.76,16.76,0,0,0,16,35l0.5,0.29a3.49,3.49,0,0,0-.18,1.33A6.61,6.61,0,0,0,17,38.24q1.29,2.25,2.26,3.77,1.46,0.13,3.63.23l3.21,0.14a1.34,1.34,0,0,0,.42-0.1,4.76,4.76,0,0,0,1-.74l0.5,0.29q-0.74,1.07-1.13,1.75t-1,2l-0.5-.29a6.31,6.31,0,0,0,.16-1.11A0.3,0.3,0,0,0,25.38,44a1.83,1.83,0,0,0-.69-0.16q-2.45-.2-4.44-0.25,0.8,1.48,2.32,3.87a2.28,2.28,0,0,0,.46.58,0.39,0.39,0,0,0,.29,0A2.26,2.26,0,0,0,24,47.59l0.17-.15,0.5,0.29a20.38,20.38,0,0,0-1.12,1.73,11.85,11.85,0,0,0-.74,1.5l-0.5-.29a3,3,0,0,0,.13-1.24,10.4,10.4,0,0,0-.93-1.91q-1.57-2.69-2.39-4-1.59-.13-4.84-0.27a6.73,6.73,0,0,0-1.66.07A4.91,4.91,0,0,0,11.35,44.22Z"/><path class="cls-1" d="M32.88,17.89l-0.29-.5q1-.48,1.87-1t2.06-1.31l0.29,0.5a3.43,3.43,0,0,0-.71.91,0.27,0.27,0,0,0,0,.22,2.3,2.3,0,0,0,.55.47q2,1.35,3.22,2.09,0-2.36-.08-4.35a1.37,1.37,0,0,0-.07-0.44,0.25,0.25,0,0,0-.17-0.11,4.15,4.15,0,0,0-1,.19l-0.29-.5q1.12-.52,1.72-0.87a16.59,16.59,0,0,0,1.48-1l0.29,0.5A3.5,3.5,0,0,0,41,13.82a6.63,6.63,0,0,0-.17,1.73q0,2.59.07,4.4,1.2,0.84,3,2l2.71,1.73a1.36,1.36,0,0,0,.41.12,4.78,4.78,0,0,0,1.25-.14l0.29,0.5q-1.18.56-1.85,0.95t-1.92,1.23l-0.29-.5A6.32,6.32,0,0,0,45.17,25a0.3,0.3,0,0,0,0-.24,1.84,1.84,0,0,0-.51-0.48q-2-1.4-3.72-2.44,0,1.68.07,4.51a2.27,2.27,0,0,0,.11.73,0.38,0.38,0,0,0,.23.18,2.23,2.23,0,0,0,.82-0.11l0.22,0,0.29,0.5q-1,.44-1.83.93a11.92,11.92,0,0,0-1.39.93l-0.29-.5a3,3,0,0,0,.73-1A10.41,10.41,0,0,0,40,25.81q0-3.11-.09-4.62-1.31-.91-4.05-2.65a6.84,6.84,0,0,0-1.47-.77A5,5,0,0,0,32.88,17.89Z"/><path class="cls-1" d="M46.39,9.43l0.29,0.5-0.28.28a2.48,2.48,0,0,0-.76.93,1.66,1.66,0,0,0,.31.85l0.17,0.3L48,15.7l2.87,4.92a1.59,1.59,0,0,0,.56.68,2,2,0,0,0,1.05-.23L53,20.92l0.29,0.5q-1.07.5-2,1T49.2,23.79l-0.29-.5a2,2,0,0,1,.23-0.24,2.75,2.75,0,0,0,.82-1,1.88,1.88,0,0,0-.35-0.91l-0.26-.42-1.77-3.11q-2.76-4.78-3.07-5.28A0.84,0.84,0,0,0,44.12,12a2.78,2.78,0,0,0-1.17.19l-0.4.08-0.29-.5q1.43-.7,2.21-1.15T46.39,9.43Z"/><line class="cls-2" x1="80.64" y1="21.3" x2="80.19" y2="25.63"/><line class="cls-2" x1="86.23" y1="22.18" x2="85.32" y2="26.44"/><line class="cls-2" x1="91.69" y1="23.64" x2="90.34" y2="27.79"/><line class="cls-2" x1="96.96" y1="25.67" x2="95.19" y2="29.65"/><line class="cls-2" x1="102" y1="28.23" x2="99.82" y2="32.01"/><line class="cls-2" x1="106.74" y1="31.31" x2="104.18" y2="34.84"/><line class="cls-2" x1="111.13" y1="34.87" x2="108.22" y2="38.11"/><line class="cls-2" x1="115.13" y1="38.87" x2="111.89" y2="41.78"/><line class="cls-2" x1="118.69" y1="43.26" x2="115.16" y2="45.82"/><line class="cls-2" x1="121.77" y1="48" x2="117.99" y2="50.18"/><line class="cls-2" x1="124.33" y1="53.04" x2="120.35" y2="54.81"/><line class="cls-2" x1="126.36" y1="58.31" x2="122.21" y2="59.66"/><line class="cls-2" x1="127.82" y1="63.77" x2="123.56" y2="64.68"/><line class="cls-2" x1="128.7" y1="69.36" x2="124.37" y2="69.81"/><line class="cls-2" x1="129" y1="75" x2="124.64" y2="75"/><line class="cls-2" x1="128.7" y1="80.64" x2="124.37" y2="80.19"/><line class="cls-2" x1="127.82" y1="86.23" x2="123.56" y2="85.32"/><line class="cls-2" x1="126.36" y1="91.69" x2="122.21" y2="90.34"/><line class="cls-2" x1="124.33" y1="96.96" x2="120.35" y2="95.19"/><line class="cls-2" x1="121.77" y1="102" x2="117.99" y2="99.82"/><line class="cls-2" x1="118.69" y1="106.74" x2="115.16" y2="104.18"/><line class="cls-2" x1="115.13" y1="111.13" x2="111.89" y2="108.22"/><line class="cls-2" x1="111.13" y1="115.13" x2="108.22" y2="111.89"/><line class="cls-2" x1="106.74" y1="118.69" x2="104.18" y2="115.16"/><line class="cls-2" x1="102" y1="121.77" x2="99.82" y2="117.99"/><line class="cls-2" x1="96.96" y1="124.33" x2="95.19" y2="120.35"/><line class="cls-2" x1="91.69" y1="126.36" x2="90.34" y2="122.21"/><line class="cls-2" x1="86.23" y1="127.82" x2="85.32" y2="123.56"/><line class="cls-2" x1="80.64" y1="128.7" x2="80.19" y2="124.37"/><line class="cls-2" x1="75" y1="129" x2="75" y2="124.64"/><line class="cls-2" x1="69.36" y1="128.7" x2="69.81" y2="124.37"/><line class="cls-2" x1="63.77" y1="127.82" x2="64.68" y2="123.56"/><line class="cls-2" x1="58.31" y1="126.36" x2="59.66" y2="122.21"/><line class="cls-2" x1="53.04" y1="124.33" x2="54.81" y2="120.35"/><line class="cls-2" x1="48" y1="121.77" x2="50.18" y2="117.99"/><line class="cls-2" x1="43.26" y1="118.69" x2="45.82" y2="115.16"/><line class="cls-2" x1="38.87" y1="115.13" x2="41.78" y2="111.89"/><line class="cls-2" x1="34.87" y1="111.13" x2="38.11" y2="108.22"/><line class="cls-2" x1="31.31" y1="106.74" x2="34.84" y2="104.18"/><line class="cls-2" x1="28.23" y1="102" x2="32.01" y2="99.82"/><line class="cls-2" x1="25.67" y1="96.96" x2="29.65" y2="95.19"/><line class="cls-2" x1="23.64" y1="91.69" x2="27.79" y2="90.34"/><line class="cls-2" x1="22.18" y1="86.23" x2="26.44" y2="85.32"/><line class="cls-2" x1="21.3" y1="80.64" x2="25.63" y2="80.19"/><line class="cls-2" x1="21" y1="75" x2="25.36" y2="75"/><line class="cls-2" x1="21.3" y1="69.36" x2="25.63" y2="69.81"/><line class="cls-2" x1="22.18" y1="63.77" x2="26.44" y2="64.68"/><line class="cls-2" x1="23.64" y1="58.31" x2="27.79" y2="59.66"/><line class="cls-2" x1="25.67" y1="53.04" x2="29.65" y2="54.81"/><line class="cls-2" x1="28.23" y1="48" x2="32.01" y2="50.18"/><line class="cls-2" x1="31.31" y1="43.26" x2="34.84" y2="45.82"/><line class="cls-2" x1="34.87" y1="38.87" x2="38.11" y2="41.78"/><line class="cls-2" x1="38.87" y1="34.87" x2="41.78" y2="38.11"/><line class="cls-2" x1="43.26" y1="31.31" x2="45.82" y2="34.84"/><line class="cls-2" x1="48" y1="28.23" x2="50.18" y2="32.01"/><line class="cls-2" x1="53.04" y1="25.67" x2="54.81" y2="29.65"/><line class="cls-2" x1="58.31" y1="23.64" x2="59.66" y2="27.79"/><line class="cls-2" x1="63.77" y1="22.18" x2="64.68" y2="26.44"/><line class="cls-2" x1="69.36" y1="21.3" x2="69.81" y2="25.63"/><line class="cls-2" x1="75" y1="21" x2="75" y2="25.36"/></svg>