<svg id="Dots_Small" data-name="Dots Small" xmlns="http://www.w3.org/2000/svg" viewBox="0 0 250 250"><defs><style>.cls-1{fill:#fff;}</style></defs><title>face-010</title><circle class="cls-1" cx="134.86" cy="31.94" r="1" transform="translate(89 162.73) rotate(-84)"/><circle class="cls-1" cx="144.54" cy="33.48" r="1" transform="translate(81.74 167.9) rotate(-78)"/><circle class="cls-1" cx="154" cy="36.02" r="1" transform="translate(72.15 171.35) rotate(-72)"/><circle class="cls-1" cx="163.14" cy="39.54" r="1" transform="translate(60.66 172.49) rotate(-66)"/><circle class="cls-1" cx="171.86" cy="44" r="1" transform="translate(47.83 170.84) rotate(-60)"/><circle class="cls-1" cx="180.07" cy="49.34" r="1" transform="translate(34.31 166.02) rotate(-54)"/><circle class="cls-1" cx="187.68" cy="55.51" r="1" transform="translate(20.85 157.84) rotate(-48)"/><circle class="cls-1" cx="194.6" cy="62.44" r="1" transform="translate(8.2 146.25) rotate(-42)"/><circle class="cls-1" cx="200.76" cy="70.06" r="1" transform="matrix(0.81, -0.59, 0.59, 0.81, -2.84, 131.38)"/><circle class="cls-1" cx="206.09" cy="78.28" r="1" transform="translate(-11.53 113.53) rotate(-30)"/><circle class="cls-1" cx="210.53" cy="87.01" r="1" transform="translate(-17.19 93.15) rotate(-24)"/><circle class="cls-1" cx="214.03" cy="96.16" r="1" transform="translate(-19.24 70.84) rotate(-18)"/><circle class="cls-1" cx="216.56" cy="105.62" r="1" transform="translate(-17.23 47.33) rotate(-12)"/><circle class="cls-1" cx="218.08" cy="115.3" r="1" transform="translate(-10.86 23.43) rotate(-6)"/><circle class="cls-1" cx="218.58" cy="125.08" r="1"/><circle class="cls-1" cx="218.06" cy="134.86" r="1" transform="translate(61.14 337.64) rotate(-84)"/><circle class="cls-1" cx="216.52" cy="144.54" r="1" transform="translate(30.12 326.28) rotate(-78)"/><circle class="cls-1" cx="213.98" cy="154" r="1" transform="translate(1.39 309.91) rotate(-72)"/><circle class="cls-1" cx="210.46" cy="163.14" r="1" transform="translate(-24.18 289.05) rotate(-66)"/><circle class="cls-1" cx="206" cy="171.86" r="1" transform="translate(-45.84 264.34) rotate(-60)"/><circle class="cls-1" cx="200.66" cy="180.07" r="1" transform="translate(-62.97 236.57) rotate(-54)"/><circle class="cls-1" cx="194.49" cy="187.68" r="1" transform="translate(-75.12 206.63) rotate(-48)"/><circle class="cls-1" cx="187.56" cy="194.6" r="1" transform="translate(-82.04 175.48) rotate(-42)"/><circle class="cls-1" cx="179.94" cy="200.76" r="1" transform="translate(-83.64 144.11) rotate(-36)"/><circle class="cls-1" cx="171.72" cy="206.09" r="1" transform="translate(-80.04 113.47) rotate(-30)"/><circle class="cls-1" cx="162.99" cy="210.53" r="1" transform="translate(-71.54 84.49) rotate(-24)"/><circle class="cls-1" cx="153.84" cy="214.03" r="1" transform="translate(-58.61 58.01) rotate(-18)"/><circle class="cls-1" cx="144.38" cy="216.56" r="1" transform="translate(-41.87 34.75) rotate(-12)"/><circle class="cls-1" cx="134.7" cy="218.08" r="1" transform="translate(-22.06 15.27) rotate(-6)"/><circle class="cls-1" cx="124.92" cy="218.58" r="1"/><circle class="cls-1" cx="115.14" cy="218.06" r="1" transform="translate(-113.77 309.77) rotate(-84)"/><circle class="cls-1" cx="105.46" cy="216.52" r="1" transform="matrix(0.21, -0.98, 0.98, 0.21, -128.25, 274.66)"/><circle class="cls-1" cx="96" cy="213.98" r="1" transform="translate(-137.17 239.16) rotate(-72)"/><circle class="cls-1" cx="86.86" cy="210.46" r="1" transform="translate(-140.73 204.21) rotate(-66)"/><circle class="cls-1" cx="78.14" cy="206" r="1" transform="translate(-139.34 170.67) rotate(-60)"/><circle class="cls-1" cx="69.93" cy="200.66" r="1" transform="translate(-133.51 139.29) rotate(-54)"/><circle class="cls-1" cx="62.32" cy="194.49" r="1" transform="translate(-123.92 110.66) rotate(-48)"/><circle class="cls-1" cx="55.4" cy="187.56" r="1" transform="translate(-111.27 85.24) rotate(-42)"/><circle class="cls-1" cx="49.24" cy="179.94" r="1" transform="translate(-96.36 63.31) rotate(-36)"/><circle class="cls-1" cx="43.91" cy="171.72" r="1" transform="translate(-79.98 44.96) rotate(-30)"/><circle class="cls-1" cx="39.47" cy="162.99" r="1" transform="translate(-62.88 30.15) rotate(-24)"/><circle class="cls-1" cx="35.97" cy="153.84" r="1" transform="translate(-45.78 18.65) rotate(-18)"/><circle class="cls-1" cx="33.44" cy="144.38" r="1" transform="translate(-29.29 10.11) rotate(-12)"/><circle class="cls-1" cx="31.92" cy="134.7" r="1" transform="translate(-13.91 4.07) rotate(-6)"/><circle class="cls-1" cx="31.42" cy="124.92" r="1"/><circle class="cls-1" cx="31.94" cy="115.14" r="1" transform="translate(-85.9 134.86) rotate(-84)"/><circle class="cls-1" cx="33.48" cy="105.46" r="1" transform="translate(-76.64 116.28) rotate(-78)"/><circle class="cls-1" cx="36.02" cy="96" r="1" transform="translate(-66.41 100.6) rotate(-72)"/><circle class="cls-1" cx="39.54" cy="86.86" r="1" transform="translate(-55.89 87.65) rotate(-66)"/><circle class="cls-1" cx="44" cy="78.14" r="1" transform="translate(-45.67 77.17) rotate(-60)"/><circle class="cls-1" cx="49.34" cy="69.93" r="1" transform="translate(-36.23 68.74) rotate(-54)"/><circle class="cls-1" cx="55.51" cy="62.32" r="1" transform="translate(-27.95 61.87) rotate(-48)"/><circle class="cls-1" cx="62.44" cy="55.4" r="1" transform="translate(-21.03 56.01) rotate(-42)"/><circle class="cls-1" cx="70.06" cy="49.24" r="1" transform="translate(-15.56 50.58) rotate(-36)"/><circle class="cls-1" cx="78.28" cy="43.91" r="1" transform="matrix(0.87, -0.5, 0.5, 0.87, -11.47, 45.02)"/><circle class="cls-1" cx="87.01" cy="39.47" r="1" transform="translate(-8.53 38.8) rotate(-24)"/><circle class="cls-1" cx="96.16" cy="35.97" r="1" transform="translate(-6.41 31.48) rotate(-18)"/><circle class="cls-1" cx="105.62" cy="33.44" r="1" transform="translate(-4.65 22.69) rotate(-12)"/><circle class="cls-1" cx="115.3" cy="31.92" r="1" transform="translate(-2.7 12.23) rotate(-6)"/><circle class="cls-1" cx="125.08" cy="31.42" r="1"/><circle class="cls-1" cx="171.86" cy="44" r="2.5" transform="translate(47.83 170.84) rotate(-60)"/><circle class="cls-1" cx="206.09" cy="78.28" r="2.5" transform="translate(-11.53 113.53) rotate(-30)"/><circle class="cls-1" cx="218.58" cy="125.08" r="2.5"/><circle class="cls-1" cx="206" cy="171.86" r="2.5" transform="translate(-45.84 264.34) rotate(-60)"/><circle class="cls-1" cx="171.72" cy="206.09" r="2.5" transform="translate(-80.04 113.47) rotate(-30)"/><circle class="cls-1" cx="124.92" cy="218.58" r="2.5"/><circle class="cls-1" cx="78.14" cy="206" r="2.5" transform="translate(-139.34 170.67) rotate(-60)"/><circle class="cls-1" cx="43.91" cy="171.72" r="2.5" transform="translate(-79.98 44.96) rotate(-30)"/><circle class="cls-1" cx="31.42" cy="124.92" r="2.5"/><circle class="cls-1" cx="44" cy="78.14" r="2.5" transform="translate(-45.67 77.17) rotate(-60)"/><circle class="cls-1" cx="78.28" cy="43.91" r="2.5" transform="translate(-11.47 45.02) rotate(-30)"/><circle class="cls-1" cx="125.08" cy="31.42" r="2.5"/><path class="cls-1" d="M125,1.5a123.5,123.5,0,0,1,87.33,210.83A123.5,123.5,0,0,1,37.67,37.67,122.7,122.7,0,0,1,125,1.5m0-1A124.5,124.5,0,1,0,249.5,125,124.5,124.5,0,0,0,125,.5h0Z"/><path class="cls-1" d="M120.24,20.44h-2.1V6.5h-2.07v-1a2.51,2.51,0,0,0,2.43-1.64h1.74V20.44Z"/><path class="cls-1" d="M132.84,20.34h-9.67a14.87,14.87,0,0,1,.23-2.81,4.69,4.69,0,0,1,.73-1.79,6.14,6.14,0,0,1,1.5-1.42q0.66-.46,1.45-0.94l1.24-.75c0.3-.18.62-0.38,1-0.62a4.13,4.13,0,0,0,.77-0.67,4.08,4.08,0,0,0,.5-0.77,3.4,3.4,0,0,0,.33-1A9.47,9.47,0,0,0,131,8.14q0-.48,0-0.75c0-.18,0-0.38,0-0.62a2.16,2.16,0,0,0-.11-0.53,3.43,3.43,0,0,0-.2-0.4,0.84,0.84,0,0,0-.32-0.33,3.84,3.84,0,0,0-.48-0.21,2.62,2.62,0,0,0-.66-0.15,8.74,8.74,0,0,0-.87,0,9.89,9.89,0,0,0-1.46.08,2.19,2.19,0,0,0-.94.38,1.64,1.64,0,0,0-.59.82A6.16,6.16,0,0,0,125,7.84l-1.66-.39q0-.1,0-0.3a3.11,3.11,0,0,1,1.2-2.75,6.24,6.24,0,0,1,3.56-.83,14.76,14.76,0,0,1,1.58.07,6.19,6.19,0,0,1,1.24.26,2.75,2.75,0,0,1,1,.52,3,3,0,0,1,.66.84,4,4,0,0,1,.39,1.22A10.37,10.37,0,0,1,133,8.14a7.76,7.76,0,0,1-.37,2.59,4.45,4.45,0,0,1-1.07,1.72,8.75,8.75,0,0,1-1.92,1.33l-0.77.44-0.73.41-0.64.38a6.31,6.31,0,0,0-.59.39l-0.49.4a2.77,2.77,0,0,0-.44.45q-0.15.21-.33,0.5a2.52,2.52,0,0,0-.27.59,5.29,5.29,0,0,0-.15.67,5.71,5.71,0,0,0-.07.78h7.64v1.53Z"/><path class="cls-1" d="M183.06,35.62H181V21.68h-2.07v-1A2.51,2.51,0,0,0,181.32,19h1.74V35.62Z"/><path class="cls-1" d="M227.74,77h-9.67a14.87,14.87,0,0,1,.23-2.81,4.69,4.69,0,0,1,.73-1.79,6.16,6.16,0,0,1,1.5-1.42Q221.2,70.52,222,70l1.24-.75c0.3-.18.62-0.38,1-0.62a4.13,4.13,0,0,0,.77-0.67,4.08,4.08,0,0,0,.5-0.77,3.4,3.4,0,0,0,.33-1,9.34,9.34,0,0,0,.09-1.38q0-.48,0-0.75t0-.62a2.12,2.12,0,0,0-.11-0.53,3.41,3.41,0,0,0-.2-0.4,0.84,0.84,0,0,0-.33-0.33,3.89,3.89,0,0,0-.48-0.21,2.63,2.63,0,0,0-.66-0.15,8.72,8.72,0,0,0-.87,0,9.88,9.88,0,0,0-1.46.08,2.18,2.18,0,0,0-.94.38,1.64,1.64,0,0,0-.59.82,6.13,6.13,0,0,0-.26,1.44l-1.66-.39a2.86,2.86,0,0,1,0-.3,3.11,3.11,0,0,1,1.2-2.75,6.24,6.24,0,0,1,3.56-.83,14.77,14.77,0,0,1,1.58.07,6.19,6.19,0,0,1,1.24.26,2.76,2.76,0,0,1,1,.52,2.94,2.94,0,0,1,.66.84,3.94,3.94,0,0,1,.39,1.22,10.37,10.37,0,0,1,.12,1.66,7.76,7.76,0,0,1-.37,2.59,4.43,4.43,0,0,1-1.07,1.72,8.75,8.75,0,0,1-1.92,1.33l-0.77.44-0.73.41-0.64.38a6.44,6.44,0,0,0-.59.39l-0.49.4a2.73,2.73,0,0,0-.44.45q-0.15.21-.33,0.5a2.52,2.52,0,0,0-.27.59,5.38,5.38,0,0,0-.15.67,5.78,5.78,0,0,0-.07.78h7.64V77Z"/><path class="cls-1" d="M243.25,129.08a7.47,7.47,0,0,1-.25,2,4,4,0,0,1-.68,1.41,3,3,0,0,1-1.15.87,5.93,5.93,0,0,1-1.55.44,13.63,13.63,0,0,1-2,.12,13.37,13.37,0,0,1-2-.13,4.65,4.65,0,0,1-1.46-.47,2.15,2.15,0,0,1-1-1,3.58,3.58,0,0,1-.31-1.58q0-.44,0-0.71l1.79-.26c0,0.09,0,.21,0,0.38s0,0.31,0,.44,0,0.26,0,.38a1.25,1.25,0,0,0,.79,1.08,6.44,6.44,0,0,0,2.31.3q0.86,0,1.39,0a2.48,2.48,0,0,0,.92-0.21,2.53,2.53,0,0,0,.57-0.34,1.23,1.23,0,0,0,.28-0.64,4.85,4.85,0,0,0,.12-0.86q0-.37,0-1.27v0a5.86,5.86,0,0,0-.16-1.5,3.28,3.28,0,0,0-.37-0.9,1.29,1.29,0,0,0-.85-0.47,7.34,7.34,0,0,0-1.15-.17q-0.51,0-1.72,0h-0.07l-0.09-1.59h1.8a4.49,4.49,0,0,0,1.23-.18,2.52,2.52,0,0,0,.75-0.36,1.22,1.22,0,0,0,.38-0.73,5.8,5.8,0,0,0,.14-0.92q0-.4,0-1.33v-0.19a4.3,4.3,0,0,0-.1-1.05,1.28,1.28,0,0,0-.44-0.66,2,2,0,0,0-.94-0.38,10.57,10.57,0,0,0-1.65-.1,7,7,0,0,0-2.36.27,1.1,1.1,0,0,0-.71,1l-0.1,1.22-1.73-.34v-0.31a6.3,6.3,0,0,1,.11-1.31,2.54,2.54,0,0,1,.41-0.94,1.92,1.92,0,0,1,.87-0.66,6.33,6.33,0,0,1,1.45-.35,18.42,18.42,0,0,1,2.19-.15,5.94,5.94,0,0,1,3.81,1,3.9,3.9,0,0,1,1.2,3.18,7.4,7.4,0,0,1-.2,1.8,4,4,0,0,1-.45,1.18,2.37,2.37,0,0,1-.62.66,2.45,2.45,0,0,1-.58.33,3.65,3.65,0,0,1-.44.12h-0.08l0.3,0.06a2.43,2.43,0,0,1,.4.15,2.21,2.21,0,0,1,.48.28,3.39,3.39,0,0,1,.46.46,2.74,2.74,0,0,1,.43.69,4.85,4.85,0,0,1,.29,1A7.25,7.25,0,0,1,243.25,129.08Z"/><path class="cls-1" d="M228.34,186.08h-1.56v4.37h-2.07v-4.36h-7v-1.68l5.8-10.57h3.24v10.77h1.56v1.47ZM224.71,175l-0.57,1.15-0.52,1L221,182.46l-0.55,1.09-0.54,1.06h4.81V175Z"/><path class="cls-1" d="M187.18,226.8a13.7,13.7,0,0,1-.12,1.94,5,5,0,0,1-.4,1.42,2.76,2.76,0,0,1-1.77,1.57,6.63,6.63,0,0,1-1.46.31,18.57,18.57,0,0,1-1.91.08q-0.67,0-1.19,0t-1.05-.12a4.26,4.26,0,0,1-.92-0.25,3.71,3.71,0,0,1-.73-0.41,2,2,0,0,1-.57-0.61,3.15,3.15,0,0,1-.34-0.86,4.77,4.77,0,0,1-.12-1.14c0-.07,0-0.19,0-0.35s0-.29,0-0.38l1.69-.24q0.06,0.66.11,1a3.49,3.49,0,0,0,.19.71,1.17,1.17,0,0,0,.32.5,1.83,1.83,0,0,0,.55.28,3.24,3.24,0,0,0,.83.16q0.47,0,1.21,0a8.56,8.56,0,0,0,1.64-.13,3.74,3.74,0,0,0,1.07-.35,1.54,1.54,0,0,0,.6-0.59,2.37,2.37,0,0,0,.28-0.76,5.52,5.52,0,0,0,.07-0.94q0-.23,0-0.78t0-.85q0-.58,0-0.89a6.06,6.06,0,0,0-.06-0.68,2,2,0,0,0-.13-0.55,1.84,1.84,0,0,0-.25-0.38,0.88,0.88,0,0,0-.4-0.29,6.11,6.11,0,0,0-.6-0.16,4.46,4.46,0,0,0-.82-0.1l-1.09,0H181c-0.2,0-.43,0-0.67.06a1.93,1.93,0,0,0-.59.16,2.54,2.54,0,0,0-.45.3,1.31,1.31,0,0,0-.36.47,2.68,2.68,0,0,0-.2.69l-2-.15v-9.21h9.44V217H179l-0.36,6.38a5.87,5.87,0,0,1,.32-0.68,3.12,3.12,0,0,1,.43-0.57,2.14,2.14,0,0,1,.64-0.48,3.89,3.89,0,0,1,.93-0.29,6.89,6.89,0,0,1,1.31-.11,11.37,11.37,0,0,1,1.83.13,4,4,0,0,1,1.33.44,3.14,3.14,0,0,1,.89.72,3,3,0,0,1,.54,1.06,7.39,7.39,0,0,1,.27,1.38Q187.18,225.76,187.18,226.8Z"/><path class="cls-1" d="M130.75,241.65a18.38,18.38,0,0,1-.09,1.95,6.27,6.27,0,0,1-.33,1.47,3.14,3.14,0,0,1-.61,1.06,3,3,0,0,1-1,.68,5,5,0,0,1-1.39.38,14.37,14.37,0,0,1-1.88.11,19.56,19.56,0,0,1-2.35-.12,4.55,4.55,0,0,1-1.63-.49,3.45,3.45,0,0,1-1.06-.85,3.58,3.58,0,0,1-.59-1.42,11.49,11.49,0,0,1-.27-1.95q-0.06-1-.06-2.7,0-3.67.1-4.78a5.86,5.86,0,0,1,1-3.28,4.74,4.74,0,0,1,3.42-1.36q0.54,0,1.15,0c0.5,0,.93,0,1.28,0a10.78,10.78,0,0,1,1.1.12,3.68,3.68,0,0,1,1,.26,2.91,2.91,0,0,1,.7.45,1.62,1.62,0,0,1,.47.7,3,3,0,0,1,.15,1q0,0.21-.09,1.11-1,.1-1.79.24c0-.34,0-0.58,0-0.74a5.29,5.29,0,0,0,0-.55,1.58,1.58,0,0,0-.09-0.43,1.34,1.34,0,0,0-.21-0.29,0.63,0.63,0,0,0-.31-0.21l-0.48-.1a4.13,4.13,0,0,0-.65-0.06h-0.87a6.79,6.79,0,0,0-2.73.45,1.75,1.75,0,0,0-.82,1.53q-0.11,2.51-.16,4.54a3.62,3.62,0,0,1,.77-1,3.3,3.3,0,0,1,1.19-.63,5.87,5.87,0,0,1,1.78-.24c0.53,0,1,0,1.39,0a9.2,9.2,0,0,1,1.14.15,4.13,4.13,0,0,1,.94.29,3.33,3.33,0,0,1,.72.46,2.29,2.29,0,0,1,.54.66,4.64,4.64,0,0,1,.36.91,6.11,6.11,0,0,1,.22,1.18C130.72,240.61,130.75,241.1,130.75,241.65Zm-2,1.74q0-3.13,0-3.47a1.42,1.42,0,0,0-.77-1.33,7.52,7.52,0,0,0-2.72-.36,13.41,13.41,0,0,0-1.51.07,2.95,2.95,0,0,0-1.64.67,1.14,1.14,0,0,0-.32.62,4.77,4.77,0,0,0-.12.73q0,0.31,0,.94,0,0.35,0,.92c0,0.38,0,.65,0,0.81a6.72,6.72,0,0,0,.06,1,2.41,2.41,0,0,0,.26.76,1.33,1.33,0,0,0,.59.57,3.94,3.94,0,0,0,1.06.31,9.68,9.68,0,0,0,1.64.12q0.72,0,1.24,0a9,9,0,0,0,.91-0.12,1.84,1.84,0,0,0,.63-0.23,2.06,2.06,0,0,0,.4-0.31,1,1,0,0,0,.22-0.44,3.29,3.29,0,0,0,.1-0.54C128.71,243.9,128.71,243.67,128.71,243.39Z"/><path class="cls-1" d="M72.3,214.38v1.91q-3.37,8.73-5,14.7H65.23q2.07-7.06,5.18-14.9H64v-1.7H72.3Z"/><path class="cls-1" d="M27.08,190.67h0a16.53,16.53,0,0,1-2.1-.11,6.11,6.11,0,0,1-1.54-.4,2.54,2.54,0,0,1-1.08-.8,3.61,3.61,0,0,1-.59-1.28,7.55,7.55,0,0,1-.2-1.88,6.76,6.76,0,0,1,.51-2.91,4.45,4.45,0,0,1,1.53-1.74q-1.22-.9-1.22-3.74a4.1,4.1,0,0,1,1.09-3.27,5.56,5.56,0,0,1,3.58-.92,5.56,5.56,0,0,1,3.58.92,4.1,4.1,0,0,1,1.09,3.27q0,2.85-1.22,3.74a4.45,4.45,0,0,1,1.53,1.74,6.76,6.76,0,0,1,.51,2.91,7.57,7.57,0,0,1-.2,1.88,3.61,3.61,0,0,1-.59,1.28,2.54,2.54,0,0,1-1.08.8,6.11,6.11,0,0,1-1.54.4A16.53,16.53,0,0,1,27.08,190.67Zm0-8.15h-1l-0.81.05a1.88,1.88,0,0,0-.66.14l-0.44.26a0.78,0.78,0,0,0-.33.44,5.7,5.7,0,0,0-.15.64,5.1,5.1,0,0,0-.07.9q0,0.38,0,1t0,0.91a3.52,3.52,0,0,0,.07.75,1.64,1.64,0,0,0,.27.59,1.35,1.35,0,0,0,.59.45,4.43,4.43,0,0,0,1,.26,12.19,12.19,0,0,0,3.13,0,4.43,4.43,0,0,0,1-.26,1.35,1.35,0,0,0,.59-0.45,1.64,1.64,0,0,0,.27-0.59,3.52,3.52,0,0,0,.07-0.75q0-.27,0-0.91t0-1a5.1,5.1,0,0,0-.07-0.9,5.6,5.6,0,0,0-.15-0.64A0.78,0.78,0,0,0,30,183l-0.44-.26a1.89,1.89,0,0,0-.66-0.14l-0.81-.05h-1Zm0-7.25H26.22a4.57,4.57,0,0,0-.67.07,4.18,4.18,0,0,0-.5.11,0.81,0.81,0,0,0-.33.21,1,1,0,0,0-.22.3,1.84,1.84,0,0,0-.12.44,3.76,3.76,0,0,0-.06.56c0,0.18,0,.43,0,0.74q0,2.66.86,3.21H29q0.86-.55.86-3.21c0-.31,0-0.56,0-0.74a3.76,3.76,0,0,0-.06-0.56A1.84,1.84,0,0,0,29.7,176a1.05,1.05,0,0,0-.22-0.3,0.81,0.81,0,0,0-.33-0.21,4.22,4.22,0,0,0-.5-0.11,4.57,4.57,0,0,0-.67-0.07H27.08Z"/><path class="cls-1" d="M17.14,124.39q0,3.88-.1,5a5.65,5.65,0,0,1-1,3.11,4.21,4.21,0,0,1-3,1.24,14.62,14.62,0,0,1-1.49.07h-1.1q-0.44,0-1-.06a7.1,7.1,0,0,1-1-.14,4.78,4.78,0,0,1-.8-0.26,1.8,1.8,0,0,1-1-1,2.1,2.1,0,0,1-.16-0.83,7.59,7.59,0,0,1,.1-1.23q0.91-.1,1.78-0.24,0,0.44,0,.66a4.19,4.19,0,0,0,.05.52,1.39,1.39,0,0,0,.12.43,1.53,1.53,0,0,0,.23.3,0.8,0.8,0,0,0,.37.23l0.55,0.13a4.56,4.56,0,0,0,.76.09l1,0a14.51,14.51,0,0,0,1.64-.11,2.63,2.63,0,0,0,1-.31,1.19,1.19,0,0,0,.53-0.58,3.81,3.81,0,0,0,.21-1q0.11-2.58.16-4.67a3.77,3.77,0,0,1-3.64,1.86,17.84,17.84,0,0,1-1.81-.08,6.66,6.66,0,0,1-1.38-.29,2.88,2.88,0,0,1-1-.55,2.85,2.85,0,0,1-.67-0.92,4.63,4.63,0,0,1-.39-1.34A13.11,13.11,0,0,1,6,122.59a17.11,17.11,0,0,1,.1-2,6.07,6.07,0,0,1,.35-1.48,3.21,3.21,0,0,1,.63-1,2.82,2.82,0,0,1,1-.66A5.44,5.44,0,0,1,9.46,117a14,14,0,0,1,1.82-.1,18.67,18.67,0,0,1,2.31.12,4.43,4.43,0,0,1,1.6.49,3.42,3.42,0,0,1,1,.85,3.58,3.58,0,0,1,.58,1.41,11.65,11.65,0,0,1,.27,1.93Q17.14,122.73,17.14,124.39Zm-2.07-2.68q0-.75,0-1.09a5,5,0,0,0-.12-0.81,1.16,1.16,0,0,0-.31-0.64,3.09,3.09,0,0,0-.6-0.38,2.7,2.7,0,0,0-1-.26q-0.59-.06-1.48-0.06a9.51,9.51,0,0,0-2.21.19,1.69,1.69,0,0,0-1,.55,2.07,2.07,0,0,0-.29,1.09q0,1.68,0,2.54t0,1.09a3.76,3.76,0,0,0,.13.78,1,1,0,0,0,.32.58,3,3,0,0,0,.62.33,3.13,3.13,0,0,0,1,.22q0.58,0,1.47.06a6.1,6.1,0,0,0,2.64-.41,1.59,1.59,0,0,0,.83-1.43Q15.07,123.29,15.07,121.71Z"/><path class="cls-1" d="M25.11,77.14H23V63.2H20.94v-1a2.51,2.51,0,0,0,2.43-1.64h1.74V77.14Z"/><path class="cls-1" d="M34.06,77.32a14,14,0,0,1-1.84-.11,3.9,3.9,0,0,1-1.38-.43,9.06,9.06,0,0,1-1-.63,2.16,2.16,0,0,1-.67-1Q28.9,74.5,28.75,74a7.78,7.78,0,0,1-.22-1.56q-0.07-1-.08-1.8t0-2.17q0-.94,0-1.63t0.07-1.42a12.12,12.12,0,0,1,.15-1.25,10.09,10.09,0,0,1,.25-1.05,3.46,3.46,0,0,1,.39-0.89,5.11,5.11,0,0,1,.54-0.7,2.56,2.56,0,0,1,.72-0.55,6.29,6.29,0,0,1,.92-0.37,5.62,5.62,0,0,1,1.15-.24,13.53,13.53,0,0,1,1.41-.07,10.69,10.69,0,0,1,1.87.15,5.9,5.9,0,0,1,1.41.42,2.93,2.93,0,0,1,1,.76,4.63,4.63,0,0,1,.68,1,5.47,5.47,0,0,1,.41,1.4,15.35,15.35,0,0,1,.2,1.73q0.05,0.88.05,2.1,0,3.66-.13,4.91A5.61,5.61,0,0,1,38.37,76a5.32,5.32,0,0,1-3.82,1.27H34.06Zm0-15.38a5.24,5.24,0,0,0-2.53.48,1.74,1.74,0,0,0-.89,1.52q0,0.71-.07,1.51t0,1.83q0,1,0,1.57,0,3,.12,4.92a1.58,1.58,0,0,0,.87,1.39,5.66,5.66,0,0,0,2.55.44,5.66,5.66,0,0,0,2.55-.44,1.58,1.58,0,0,0,.87-1.39q0.12-1.93.12-4.92,0-.54-0.05-2.27t-0.08-2.64a1.76,1.76,0,0,0-.9-1.52A5.21,5.21,0,0,0,34.06,61.94Z"/><path class="cls-1" d="M68.4,35.64h-2.1V21.7H64.23v-1A2.51,2.51,0,0,0,66.67,19H68.4V35.64Z"/><path class="cls-1" d="M74.95,35.64h-2.1V21.7H70.78v-1A2.51,2.51,0,0,0,73.21,19h1.74V35.64Z"/></svg>
