<svg id="Roman_Outer_Ring" data-name="Roman Outer Ring" xmlns="http://www.w3.org/2000/svg" viewBox="0 0 250 250"><defs><style>.cls-1,.cls-3{fill:none;stroke:#fff;stroke-miterlimit:10;}.cls-2{fill:#fff;}.cls-3{stroke-linecap:round;stroke-width:0.47px;}</style></defs><title>face-009</title><circle class="cls-1" cx="125" cy="125" r="90"/><path class="cls-2" d="M125,1.25A123.75,123.75,0,0,1,212.5,212.5a123.75,123.75,0,0,1-175-175A122.94,122.94,0,0,1,125,1.25m0-1A124.75,124.75,0,1,0,249.75,125,124.75,124.75,0,0,0,125,.25h0Z"/><path class="cls-2" d="M107.26,7.42v-1q1.9,0.18,3.5.18t4.06-.18v1a5.71,5.71,0,0,0-1.78.72,0.45,0.45,0,0,0-.16.34,3.84,3.84,0,0,0,.4,1.14q1.7,3.58,2.9,5.7,2-3.4,3.51-6.35A2.29,2.29,0,0,0,120,8.28,0.42,0.42,0,0,0,119.81,8a7,7,0,0,0-1.59-.55v-1q2,0.18,3.21.18a28.13,28.13,0,0,0,3-.18v1a5.83,5.83,0,0,0-2.08.85,11,11,0,0,0-1.69,2.36q-2.17,3.74-3.56,6.4,1,2.22,2.69,5.42l2.48,4.75a2.21,2.21,0,0,0,.49.52,8,8,0,0,0,1.91.85v1q-2.16-.18-3.46-0.18t-3.8.18v-1a10.33,10.33,0,0,0,1.73-.7,0.5,0.5,0,0,0,.13-0.37,3.07,3.07,0,0,0-.34-1.12q-1.75-3.7-3.34-6.62-1.47,2.39-3.65,6.58a3.81,3.81,0,0,0-.45,1.14,0.65,0.65,0,0,0,.18.46,3.84,3.84,0,0,0,1.28.52l0.35,0.11v1q-1.78-.18-3.42-0.18a19.92,19.92,0,0,0-2.78.18v-1a5,5,0,0,0,1.9-.85,17.32,17.32,0,0,0,2-2.94q2.58-4.5,3.73-6.74-1.14-2.41-3.64-7.21a11.2,11.2,0,0,0-1.49-2.33A8.22,8.22,0,0,0,107.26,7.42Z"/><path class="cls-2" d="M133.79,6.46v1l-0.63.18a4.13,4.13,0,0,0-1.88.71A2.78,2.78,0,0,0,131,9.79v0.57L131,16.9l0,9.5a2.65,2.65,0,0,0,.25,1.45,3.37,3.37,0,0,0,1.71.54q0.28,0,.82.2v1q-2-.18-3.78-0.18t-4.12.18v-1a3.41,3.41,0,0,1,.54-0.16,4.56,4.56,0,0,0,2-.69,3.1,3.1,0,0,0,.25-1.6l0-.81,0-6q0-9.2,0-10.18a1.39,1.39,0,0,0-.26-0.83,4.61,4.61,0,0,0-1.84-.7l-0.64-.21v-1q2.65,0.18,4.14.18Q131.68,6.64,133.79,6.46Z"/><path class="cls-2" d="M142.92,6.46v1l-0.63.18a4.13,4.13,0,0,0-1.88.71,2.78,2.78,0,0,0-.26,1.49v0.57l-0.06,6.54,0,9.5a2.65,2.65,0,0,0,.25,1.45,3.37,3.37,0,0,0,1.71.54q0.28,0,.82.2v1q-2-.18-3.78-0.18t-4.12.18v-1a3.46,3.46,0,0,1,.54-0.16,4.56,4.56,0,0,0,2-.69,3.1,3.1,0,0,0,.25-1.6l0-.81,0-6q0-9.2,0-10.18a1.39,1.39,0,0,0-.26-0.83,4.61,4.61,0,0,0-1.84-.7L135,7.42v-1q2.65,0.18,4.14.18Q140.8,6.64,142.92,6.46Z"/><path class="cls-2" d="M187.77,24.35l-0.48.83L186.66,25a4.13,4.13,0,0,0-2-.33,2.77,2.77,0,0,0-1,1.16l-0.28.49L180.1,32l-4.72,8.24a2.66,2.66,0,0,0-.51,1.38,3.37,3.37,0,0,0,1.22,1.32q0.22,0.18.61,0.58l-0.48.83q-1.61-1.14-3.19-2t-3.66-1.91l0.48-.83a3.53,3.53,0,0,1,.55.13,4.57,4.57,0,0,0,2.06.39,3.11,3.11,0,0,0,1-1.26l0.38-.72,3-5.15q4.6-8,5.06-8.83a1.39,1.39,0,0,0,.19-0.85,4.6,4.6,0,0,0-1.24-1.53l-0.45-.5,0.48-.83q2.21,1.48,3.5,2.23T187.77,24.35Z"/><path class="cls-2" d="M227.38,65.29l-0.83.48-0.47-.46A4.13,4.13,0,0,0,224.53,64a2.78,2.78,0,0,0-1.42.52l-0.49.28-5.69,3.22-8.21,4.78a2.65,2.65,0,0,0-1.13.94,3.35,3.35,0,0,0,.39,1.75q0.1,0.27.24,0.81l-0.83.48q-0.83-1.79-1.74-3.36T203.45,70l0.83-.48a3.62,3.62,0,0,1,.41.38,4.57,4.57,0,0,0,1.59,1.37,3.1,3.1,0,0,0,1.51-.58l0.69-.43,5.19-3q8-4.6,8.8-5.12a1.4,1.4,0,0,0,.59-0.64,4.6,4.6,0,0,0-.31-1.94q-0.05-.22-0.14-0.66l0.83-.48q1.17,2.39,1.92,3.68T227.38,65.29Z"/><path class="cls-2" d="M231.95,73.19l-0.83.48-0.47-.46a4.12,4.12,0,0,0-1.55-1.27,2.77,2.77,0,0,0-1.42.52l-0.49.28L221.49,76l-8.21,4.78a2.65,2.65,0,0,0-1.13.94,3.37,3.37,0,0,0,.39,1.75q0.1,0.27.24,0.81l-0.83.48q-0.83-1.79-1.74-3.36T208,77.87l0.83-.48a3.6,3.6,0,0,1,.41.38,4.57,4.57,0,0,0,1.59,1.37,3.12,3.12,0,0,0,1.51-.58l0.69-.43,5.19-3q8-4.6,8.8-5.12a1.39,1.39,0,0,0,.59-0.64,4.6,4.6,0,0,0-.31-1.94c0-.15-0.08-0.37-0.14-0.66l0.83-.48q1.17,2.39,1.92,3.68T231.95,73.19Z"/><path class="cls-2" d="M243.54,119.87h-1q-0.13-.43-0.18-0.63a4.14,4.14,0,0,0-.71-1.88,2.78,2.78,0,0,0-1.49-.26h-0.57L233.1,117l-9.5,0a2.64,2.64,0,0,0-1.45.25,3.36,3.36,0,0,0-.54,1.71q0,0.28-.2.82h-1q0.18-2,.18-3.78T220.47,112h1a3.55,3.55,0,0,1,.16.54,4.57,4.57,0,0,0,.69,2,3.11,3.11,0,0,0,1.6.25l0.81,0,6,0q9.2,0,10.18,0a1.39,1.39,0,0,0,.83-0.26,4.58,4.58,0,0,0,.7-1.84q0.07-.22.21-0.64h1q-0.18,2.65-.18,4.14Q243.36,117.75,243.54,119.87Z"/><path class="cls-2" d="M243.54,129h-1c-0.09-.28-0.15-0.5-0.18-0.63a4.13,4.13,0,0,0-.71-1.88,2.77,2.77,0,0,0-1.49-.26h-0.57l-6.54-.06-9.5,0a2.65,2.65,0,0,0-1.45.25,3.36,3.36,0,0,0-.54,1.71q0,0.28-.2.82h-1q0.18-2,.18-3.78t-0.18-4.12h1a3.55,3.55,0,0,1,.16.54,4.57,4.57,0,0,0,.69,2,3.11,3.11,0,0,0,1.6.25l0.81,0,6,0q9.2,0,10.18,0a1.39,1.39,0,0,0,.83-0.26,4.58,4.58,0,0,0,.7-1.84q0.07-.22.21-0.64h1q-0.18,2.65-.18,4.14Q243.36,126.88,243.54,129Z"/><path class="cls-2" d="M243.54,138.11h-1c-0.09-.28-0.15-0.5-0.18-0.63a4.13,4.13,0,0,0-.71-1.88,2.77,2.77,0,0,0-1.49-.26h-0.57l-6.54-.06-9.5,0a2.65,2.65,0,0,0-1.45.25,3.36,3.36,0,0,0-.54,1.71q0,0.28-.2.82h-1q0.18-2,.18-3.78t-0.18-4.12h1a3.59,3.59,0,0,1,.16.54,4.57,4.57,0,0,0,.69,2,3.11,3.11,0,0,0,1.6.25l0.81,0,6,0q9.2,0,10.18,0a1.39,1.39,0,0,0,.83-0.26,4.59,4.59,0,0,0,.7-1.84q0.07-.22.21-0.64h1q-0.18,2.65-.18,4.14Q243.36,136,243.54,138.11Z"/><path class="cls-2" d="M230.08,180.18l-0.83-.48c0.07-.29.12-0.5,0.16-0.64a4.13,4.13,0,0,0,.33-2,2.78,2.78,0,0,0-1.16-1l-0.49-.29-5.63-3.32-8.24-4.72a2.63,2.63,0,0,0-1.38-.51,3.36,3.36,0,0,0-1.32,1.22q-0.18.22-.58,0.61l-0.83-.48q1.14-1.61,2-3.18t1.91-3.66l0.83,0.48a3.52,3.52,0,0,1-.13.55,4.57,4.57,0,0,0-.39,2.06,3.12,3.12,0,0,0,1.26,1l0.72,0.39,5.15,3q8,4.6,8.83,5.06a1.39,1.39,0,0,0,.85.19,4.6,4.6,0,0,0,1.52-1.24l0.51-.45,0.83,0.48q-1.48,2.21-2.22,3.5T230.08,180.18Z"/><path class="cls-2" d="M204.74,176.94l0.4-.7q6.16,1.72,14,3.64,6.56,1.59,7.27,1.69a1.9,1.9,0,0,0,.8,0,8.11,8.11,0,0,0,1.62-1.16l0.83,0.48q-1.47,2.19-1.89,2.91-0.59,1-1.58,3.09l-0.83-.48q0-.23.06-0.34a4.18,4.18,0,0,0,.16-1.53,0.79,0.79,0,0,0-.37-0.46,1.91,1.91,0,0,0-.33-0.15q-1.14-.4-7-1.94l-8.52-2.25q3.73,3.89,7,7.06,4.07,4,4.54,4.37l0.18,0.13a0.7,0.7,0,0,0,.53.09,6.23,6.23,0,0,0,1.59-1.13l0.79,0.46-0.48.74q-1.05,1.56-1.32,2a20.74,20.74,0,0,0-1.08,2.23l-0.79-.46a4.94,4.94,0,0,0,.14-1.78,3.89,3.89,0,0,0-.91-1.34q-1.57-1.77-9.59-9.86Z"/><path class="cls-2" d="M172,207.58l0.7-.4q4.47,4.57,10.33,10.16,4.88,4.65,5.45,5.1a1.89,1.89,0,0,0,.72.36,8.12,8.12,0,0,0,2-.2l0.48,0.83q-2.37,1.16-3.09,1.58-1,.59-2.91,1.89l-0.48-.83,0.23-.26a4.17,4.17,0,0,0,.91-1.25,0.79,0.79,0,0,0-.09-0.58,2,2,0,0,0-.21-0.29q-0.78-.92-5.1-5.19l-6.26-6.21q1.28,5.23,2.52,9.61,1.53,5.48,1.75,6.05a1.28,1.28,0,0,0,.09.21,0.71,0.71,0,0,0,.41.34,6.21,6.21,0,0,0,1.95-.19l0.46,0.79-0.78.4q-1.69.83-2.16,1.1a20.5,20.5,0,0,0-2.05,1.39l-0.46-.79a5,5,0,0,0,1-1.47,3.89,3.89,0,0,0-.12-1.61q-0.48-2.32-3.38-13.34Z"/><path class="cls-2" d="M129,220h0.8q1.58,6.2,3.87,14,1.9,6.47,2.17,7.14a1.89,1.89,0,0,0,.44.67,8.12,8.12,0,0,0,1.82.82v1q-2.64-.18-3.46-0.18-1.18,0-3.46.18v-1l0.33-.11a4.19,4.19,0,0,0,1.41-.63,0.79,0.79,0,0,0,.21-0.54,2,2,0,0,0,0-.36q-0.22-1.19-1.83-7l-2.31-8.51q-1.5,5.17-2.62,9.58-1.42,5.51-1.51,6.12a1.27,1.27,0,0,0,0,.23,0.71,0.71,0,0,0,.18.5,6.21,6.21,0,0,0,1.78.81v0.91l-0.88,0q-1.88-.13-2.41-0.13a20.51,20.51,0,0,0-2.48.18v-0.91a5,5,0,0,0,1.61-.77,3.9,3.9,0,0,0,.71-1.46q0.74-2.24,3.74-13.24Z"/><path class="cls-2" d="M112.29,243.54v-1l0.63-.18a4.14,4.14,0,0,0,1.88-.71,2.78,2.78,0,0,0,.26-1.49v-0.57l0.06-6.54,0-9.5a2.64,2.64,0,0,0-.25-1.45,3.36,3.36,0,0,0-1.71-.54q-0.28,0-.82-0.2v-1q2,0.18,3.78.18t4.12-.18v1a3.55,3.55,0,0,1-.54.16,4.57,4.57,0,0,0-2,.69,3.11,3.11,0,0,0-.25,1.6l0,0.81,0,6q0,9.2,0,10.18a1.39,1.39,0,0,0,.26.83,4.58,4.58,0,0,0,1.84.7l0.64,0.21v1q-2.65-.18-4.14-0.18Q114.41,243.36,112.29,243.54Z"/><path class="cls-2" d="M85,211.55l0.7,0.4Q84,218.11,82,226q-1.59,6.56-1.69,7.27a1.88,1.88,0,0,0,0,.8,8.06,8.06,0,0,0,1.16,1.62l-0.48.83q-2.19-1.47-2.91-1.89-1-.59-3.09-1.58l0.48-.83,0.34,0.07a4.22,4.22,0,0,0,1.53.16,0.79,0.79,0,0,0,.46-0.37,1.91,1.91,0,0,0,.15-0.33q0.4-1.14,1.94-7l2.25-8.53q-3.89,3.73-7.06,7-4,4.07-4.37,4.54a1.22,1.22,0,0,0-.13.18,0.71,0.71,0,0,0-.09.53A6.23,6.23,0,0,0,71.7,230l-0.46.79-0.74-.48q-1.56-1.05-2-1.32a20.6,20.6,0,0,0-2.24-1.08l0.46-.79a4.94,4.94,0,0,0,1.78.14,3.89,3.89,0,0,0,1.34-.91q1.77-1.57,9.86-9.59Z"/><path class="cls-2" d="M58.73,223.6l0.48-.83,0.64,0.16a4.13,4.13,0,0,0,2,.33,2.78,2.78,0,0,0,1-1.16l0.28-.49L66.4,216l4.72-8.24a2.66,2.66,0,0,0,.51-1.38A3.38,3.38,0,0,0,70.41,205q-0.22-.18-0.61-0.58l0.48-.83q1.61,1.14,3.18,2t3.66,1.91l-0.48.83a3.53,3.53,0,0,1-.55-0.13,4.57,4.57,0,0,0-2.06-.39,3.1,3.1,0,0,0-1,1.26l-0.39.72-3,5.15q-4.6,8-5.06,8.83a1.4,1.4,0,0,0-.19.85,4.62,4.62,0,0,0,1.24,1.53l0.45,0.5-0.48.83q-2.21-1.48-3.5-2.23T58.73,223.6Z"/><path class="cls-2" d="M50.83,219l0.48-.83,0.64,0.16a4.14,4.14,0,0,0,2,.33,2.78,2.78,0,0,0,1-1.16l0.28-.49,3.32-5.63,4.72-8.24a2.66,2.66,0,0,0,.51-1.38,3.36,3.36,0,0,0-1.22-1.32q-0.22-.18-0.61-0.58l0.48-.83q1.61,1.14,3.18,2T69.22,203l-0.48.83a3.48,3.48,0,0,1-.55-0.13,4.56,4.56,0,0,0-2.06-.39,3.1,3.1,0,0,0-1,1.26l-0.39.72-3,5.15q-4.6,8-5.06,8.83a1.39,1.39,0,0,0-.19.85,4.6,4.6,0,0,0,1.24,1.53l0.45,0.5-0.48.83q-2.21-1.48-3.5-2.23T50.83,219Z"/><path class="cls-2" d="M49.32,183.91l0.4,0.7q-4.57,4.47-10.16,10.33-4.65,4.88-5.1,5.45a1.89,1.89,0,0,0-.36.72,8.09,8.09,0,0,0,.2,2l-0.83.48q-1.16-2.37-1.58-3.09-0.59-1-1.89-2.91l0.83-.48,0.26,0.23a4.18,4.18,0,0,0,1.25.91,0.78,0.78,0,0,0,.58-0.09,1.88,1.88,0,0,0,.29-0.21q0.92-.78,5.19-5.1l6.21-6.26q-5.23,1.29-9.61,2.52-5.48,1.53-6.05,1.75l-0.21.09a0.71,0.71,0,0,0-.35.41,6.19,6.19,0,0,0,.19,1.95l-0.79.46-0.4-.79q-0.83-1.69-1.09-2.15a20.39,20.39,0,0,0-1.39-2.06l0.79-.46a5,5,0,0,0,1.47,1,3.9,3.9,0,0,0,1.61-.12q2.32-.48,13.33-3.37Z"/><path class="cls-2" d="M20.56,181.22l0.83-.48,0.47,0.46a4.13,4.13,0,0,0,1.55,1.27,2.77,2.77,0,0,0,1.42-.52l0.49-.29L31,178.45l8.21-4.78a2.64,2.64,0,0,0,1.13-.94A3.35,3.35,0,0,0,40,171c-0.06-.18-0.15-0.45-0.24-0.81l0.83-.48q0.83,1.79,1.74,3.36t2.22,3.48l-0.83.48a3.5,3.5,0,0,1-.41-0.38,4.58,4.58,0,0,0-1.59-1.37,3.09,3.09,0,0,0-1.51.58l-0.69.43-5.19,3q-8,4.6-8.8,5.12a1.4,1.4,0,0,0-.59.64,4.61,4.61,0,0,0,.31,1.94c0,0.15.08,0.37,0.14,0.66l-0.83.48q-1.17-2.39-1.92-3.67T20.56,181.22Z"/><path class="cls-2" d="M16,173.32l0.83-.48,0.47,0.46a4.11,4.11,0,0,0,1.55,1.27,2.76,2.76,0,0,0,1.42-.52l0.49-.29,5.69-3.21,8.21-4.78a2.66,2.66,0,0,0,1.13-.94,3.37,3.37,0,0,0-.39-1.75q-0.1-.27-0.24-0.81l0.83-.48q0.83,1.79,1.74,3.36t2.22,3.48l-0.83.48a3.51,3.51,0,0,1-.41-0.38,4.56,4.56,0,0,0-1.59-1.37,3.11,3.11,0,0,0-1.51.58l-0.69.43-5.19,3q-8,4.6-8.8,5.12a1.39,1.39,0,0,0-.59.64,4.6,4.6,0,0,0,.31,1.94c0,0.15.08,0.37,0.14,0.66l-0.83.48q-1.17-2.38-1.92-3.67T16,173.32Z"/><path class="cls-2" d="M11.44,165.42l0.83-.48,0.47,0.46a4.13,4.13,0,0,0,1.55,1.27,2.77,2.77,0,0,0,1.42-.52l0.49-.29,5.69-3.22,8.21-4.78a2.64,2.64,0,0,0,1.13-.94,3.35,3.35,0,0,0-.39-1.75c-0.06-.18-0.15-0.45-0.24-0.81l0.83-.48q0.83,1.79,1.74,3.36t2.22,3.48l-0.83.48a3.58,3.58,0,0,1-.41-0.38,4.58,4.58,0,0,0-1.59-1.37A3.1,3.1,0,0,0,31,160l-0.69.43-5.19,3q-8,4.6-8.8,5.12a1.4,1.4,0,0,0-.59.64,4.61,4.61,0,0,0,.31,1.94q0.05,0.22.14,0.66l-0.83.48q-1.17-2.39-1.92-3.67Q12.65,167.16,11.44,165.42Z"/><path class="cls-2" d="M6.46,130.38h1c0.09,0.28.15,0.5,0.18,0.63a4.13,4.13,0,0,0,.71,1.88,2.78,2.78,0,0,0,1.49.26h0.57l6.54,0.06,9.5,0a2.65,2.65,0,0,0,1.45-.25,3.37,3.37,0,0,0,.54-1.71q0-.28.2-0.82h1q-0.18,2-.18,3.78t0.18,4.12h-1a3.46,3.46,0,0,1-.16-0.54,4.56,4.56,0,0,0-.69-2,3.1,3.1,0,0,0-1.6-.25l-0.81,0-6,0q-9.2,0-10.18,0a1.39,1.39,0,0,0-.83.26,4.61,4.61,0,0,0-.7,1.84q-0.06.22-.21,0.64h-1q0.18-2.65.18-4.14Q6.64,132.49,6.46,130.38Z"/><path class="cls-2" d="M7.42,129.06h-1q0.18-1.9.18-3.5T6.46,121.5h1a5.71,5.71,0,0,0,.72,1.78,0.45,0.45,0,0,0,.34.16,3.84,3.84,0,0,0,1.14-.4q3.58-1.7,5.7-2.9-3.4-2-6.35-3.51a2.29,2.29,0,0,0-.68-0.27,0.42,0.42,0,0,0-.31.16,7,7,0,0,0-.55,1.59h-1q0.18-2,.18-3.21a28.13,28.13,0,0,0-.18-3h1A5.83,5.83,0,0,0,8.27,114a11,11,0,0,0,2.36,1.69q3.74,2.17,6.4,3.56,2.22-1,5.42-2.69l4.75-2.48a2.21,2.21,0,0,0,.52-0.49,8,8,0,0,0,.85-1.91h1q-0.18,2.16-.18,3.46t0.18,3.8h-1a10.33,10.33,0,0,0-.7-1.73,0.5,0.5,0,0,0-.37-0.13,3.07,3.07,0,0,0-1.12.34q-3.7,1.75-6.62,3.34,2.39,1.47,6.58,3.65a3.81,3.81,0,0,0,1.14.45,0.65,0.65,0,0,0,.46-0.18,3.84,3.84,0,0,0,.52-1.28c0-.08.06-0.2,0.11-0.35h1q-0.18,1.78-.18,3.42a19.92,19.92,0,0,0,.18,2.78h-1a5,5,0,0,0-.85-1.9,17.32,17.32,0,0,0-2.94-2q-4.5-2.58-6.74-3.73-2.41,1.14-7.21,3.64a11.27,11.27,0,0,0-2.33,1.49A8.25,8.25,0,0,0,7.42,129.06Z"/><path class="cls-2" d="M18.92,73.69l-0.83-.48q1.11-1.56,1.91-2.94t1.88-3.61l0.83,0.48a5.74,5.74,0,0,0-.27,1.9,0.45,0.45,0,0,0,.22.31,3.85,3.85,0,0,0,1.19.22q4,0.31,6.39.34-2-3.41-3.75-6.22A2.31,2.31,0,0,0,26,63.12a0.42,0.42,0,0,0-.35,0,7,7,0,0,0-1.27,1.1l-0.83-.48Q24.75,62,25.32,61a28.1,28.1,0,0,0,1.32-2.65l0.83,0.48a5.83,5.83,0,0,0-.3,2.22,11,11,0,0,0,1.2,2.64q2.15,3.75,3.77,6.28,2.44,0.21,6,.38l5.35,0.23a2.22,2.22,0,0,0,.69-0.16,8,8,0,0,0,1.69-1.24l0.83,0.48q-1.23,1.78-1.89,2.91T43.12,76l-0.83-.48a10.43,10.43,0,0,0,.26-1.85,0.5,0.5,0,0,0-.26-0.3,3.07,3.07,0,0,0-1.14-.27q-4.08-.34-7.4-0.41,1.33,2.47,3.87,6.45a3.78,3.78,0,0,0,.76,1,0.65,0.65,0,0,0,.49.07A3.83,3.83,0,0,0,40,79.32l0.28-.25,0.83,0.48Q40,81,39.2,82.43A19.91,19.91,0,0,0,38,84.92l-0.83-.48a5,5,0,0,0,.21-2.07,17.37,17.37,0,0,0-1.55-3.19q-2.61-4.48-4-6.6-2.66-.22-8.06-0.45a11.22,11.22,0,0,0-2.76.12A8.17,8.17,0,0,0,18.92,73.69Z"/><path class="cls-2" d="M54.81,29.82L54.33,29q1.74-.8,3.12-1.6t3.43-2.19L61.36,26a5.76,5.76,0,0,0-1.18,1.51,0.45,0.45,0,0,0,0,.38,3.84,3.84,0,0,0,.92.78q3.27,2.25,5.37,3.49,0-3.94-.14-7.26a2.27,2.27,0,0,0-.11-0.73A0.42,0.42,0,0,0,66,24a7,7,0,0,0-1.65.31l-0.48-.83q1.86-.87,2.87-1.45a28,28,0,0,0,2.47-1.63l0.48,0.83A5.82,5.82,0,0,0,68.26,23,11,11,0,0,0,68,25.92q0,4.32.12,7.32,2,1.41,5,3.35l4.52,2.87a2.22,2.22,0,0,0,.68.21,8,8,0,0,0,2.08-.22l0.48,0.83q-2,.92-3.09,1.58t-3.21,2.06l-0.48-.83a10.42,10.42,0,0,0,1.15-1.47,0.5,0.5,0,0,0-.07-0.39,3.06,3.06,0,0,0-.86-0.8q-3.36-2.33-6.2-4.06-0.08,2.8.12,7.52a3.83,3.83,0,0,0,.18,1.21,0.65,0.65,0,0,0,.39.31,3.83,3.83,0,0,0,1.37-.19l0.36-.08L71.06,46q-1.63.73-3.05,1.56a19.91,19.91,0,0,0-2.31,1.54l-0.48-.83a5,5,0,0,0,1.22-1.69A17.42,17.42,0,0,0,66.69,43q0-5.18-.14-7.7-2.19-1.52-6.76-4.42a11.2,11.2,0,0,0-2.46-1.28A8.18,8.18,0,0,0,54.81,29.82Z"/><path class="cls-2" d="M77.31,15.72l0.48,0.83L77.33,17a4.15,4.15,0,0,0-1.27,1.55A2.78,2.78,0,0,0,76.58,20l0.28,0.49,3.22,5.69,4.78,8.21a2.64,2.64,0,0,0,.94,1.13,3.35,3.35,0,0,0,1.75-.39q0.27-.1.8-0.24l0.48,0.83q-1.79.83-3.36,1.74T82,39.66l-0.48-.83a3.66,3.66,0,0,1,.38-0.41,4.57,4.57,0,0,0,1.37-1.59,3.11,3.11,0,0,0-.58-1.51l-0.43-.69-3-5.19q-4.6-8-5.12-8.8a1.38,1.38,0,0,0-.64-0.59,4.58,4.58,0,0,0-1.94.31l-0.66.14-0.48-.83q2.38-1.17,3.67-1.92T77.31,15.72Z"/><line class="cls-3" x1="134.41" y1="35.49" x2="133.65" y2="42.71"/><line class="cls-3" x1="143.71" y1="36.97" x2="142.2" y2="44.07"/><line class="cls-3" x1="152.81" y1="39.4" x2="150.57" y2="46.31"/><line class="cls-3" x1="161.61" y1="42.78" x2="158.65" y2="49.41"/><line class="cls-3" x1="170" y1="47.06" x2="166.37" y2="53.35"/><line class="cls-3" x1="177.9" y1="52.19" x2="173.63" y2="58.06"/><line class="cls-3" x1="185.22" y1="58.12" x2="180.36" y2="63.51"/><line class="cls-3" x1="191.88" y1="64.78" x2="186.49" y2="69.64"/><line class="cls-3" x1="197.81" y1="72.1" x2="191.94" y2="76.37"/><line class="cls-3" x1="202.94" y1="80" x2="196.65" y2="83.63"/><line class="cls-3" x1="207.22" y1="88.39" x2="200.59" y2="91.35"/><line class="cls-3" x1="210.6" y1="97.19" x2="203.69" y2="99.43"/><line class="cls-3" x1="213.03" y1="106.29" x2="205.93" y2="107.8"/><line class="cls-3" x1="214.51" y1="115.59" x2="207.29" y2="116.35"/><line class="cls-3" x1="215" y1="125" x2="207.74" y2="125"/><line class="cls-3" x1="214.51" y1="134.41" x2="207.29" y2="133.65"/><line class="cls-3" x1="213.03" y1="143.71" x2="205.93" y2="142.2"/><line class="cls-3" x1="210.6" y1="152.81" x2="203.69" y2="150.57"/><line class="cls-3" x1="207.22" y1="161.61" x2="200.59" y2="158.65"/><line class="cls-3" x1="202.94" y1="170" x2="196.65" y2="166.37"/><line class="cls-3" x1="197.81" y1="177.9" x2="191.94" y2="173.63"/><line class="cls-3" x1="191.88" y1="185.22" x2="186.49" y2="180.36"/><line class="cls-3" x1="185.22" y1="191.88" x2="180.36" y2="186.49"/><line class="cls-3" x1="177.9" y1="197.81" x2="173.63" y2="191.94"/><line class="cls-3" x1="170" y1="202.94" x2="166.37" y2="196.65"/><line class="cls-3" x1="161.61" y1="207.22" x2="158.65" y2="200.59"/><line class="cls-3" x1="152.81" y1="210.6" x2="150.57" y2="203.69"/><line class="cls-3" x1="143.71" y1="213.03" x2="142.2" y2="205.93"/><line class="cls-3" x1="134.41" y1="214.51" x2="133.65" y2="207.29"/><line class="cls-3" x1="125" y1="215" x2="125" y2="207.74"/><line class="cls-3" x1="115.59" y1="214.51" x2="116.35" y2="207.29"/><line class="cls-3" x1="106.29" y1="213.03" x2="107.8" y2="205.93"/><line class="cls-3" x1="97.19" y1="210.6" x2="99.43" y2="203.69"/><line class="cls-3" x1="88.39" y1="207.22" x2="91.35" y2="200.59"/><line class="cls-3" x1="80" y1="202.94" x2="83.63" y2="196.65"/><line class="cls-3" x1="72.1" y1="197.81" x2="76.37" y2="191.94"/><line class="cls-3" x1="64.78" y1="191.88" x2="69.64" y2="186.49"/><line class="cls-3" x1="58.12" y1="185.22" x2="63.51" y2="180.36"/><line class="cls-3" x1="52.19" y1="177.9" x2="58.06" y2="173.63"/><line class="cls-3" x1="47.06" y1="170" x2="53.35" y2="166.37"/><line class="cls-3" x1="42.78" y1="161.61" x2="49.41" y2="158.65"/><line class="cls-3" x1="39.4" y1="152.81" x2="46.31" y2="150.57"/><line class="cls-3" x1="36.97" y1="143.71" x2="44.07" y2="142.2"/><line class="cls-3" x1="35.49" y1="134.41" x2="42.71" y2="133.65"/><line class="cls-3" x1="35" y1="125" x2="42.26" y2="125"/><line class="cls-3" x1="35.49" y1="115.59" x2="42.71" y2="116.35"/><line class="cls-3" x1="36.97" y1="106.29" x2="44.07" y2="107.8"/><line class="cls-3" x1="39.4" y1="97.19" x2="46.31" y2="99.43"/><line class="cls-3" x1="42.78" y1="88.39" x2="49.41" y2="91.35"/><line class="cls-3" x1="47.06" y1="80" x2="53.35" y2="83.63"/><line class="cls-3" x1="52.19" y1="72.1" x2="58.06" y2="76.37"/><line class="cls-3" x1="58.12" y1="64.78" x2="63.51" y2="69.64"/><line class="cls-3" x1="64.78" y1="58.12" x2="69.64" y2="63.51"/><line class="cls-3" x1="72.1" y1="52.19" x2="76.37" y2="58.06"/><line class="cls-3" x1="80" y1="47.06" x2="83.63" y2="53.35"/><line class="cls-3" x1="88.39" y1="42.78" x2="91.35" y2="49.41"/><line class="cls-3" x1="97.19" y1="39.4" x2="99.43" y2="46.31"/><line class="cls-3" x1="106.29" y1="36.97" x2="107.8" y2="44.07"/><line class="cls-3" x1="115.59" y1="35.49" x2="116.35" y2="42.71"/><line class="cls-3" x1="125" y1="35" x2="125" y2="42.26"/></svg>
