<svg id="Dots_Small_Larger" data-name="Dots Small Larger" xmlns="http://www.w3.org/2000/svg" viewBox="0 0 250 250"><defs><style>.cls-1{fill:#fff;}</style></defs><title>face-011</title><circle class="cls-1" cx="136.81" cy="13.62" r="1.2" transform="translate(108.97 148.25) rotate(-84)"/><circle class="cls-1" cx="148.39" cy="15.46" r="1.2" transform="translate(102.41 157.39) rotate(-78)"/><circle class="cls-1" cx="159.71" cy="18.51" r="1.2" transform="translate(92.76 164.68) rotate(-72)"/><circle class="cls-1" cx="170.65" cy="22.72" r="1.2" transform="translate(80.49 169.37) rotate(-66)"/><circle class="cls-1" cx="181.09" cy="28.05" r="1.2" transform="translate(66.25 170.85) rotate(-60)"/><circle class="cls-1" cx="190.92" cy="34.44" r="1.2" transform="translate(50.83 168.65) rotate(-54)"/><circle class="cls-1" cx="200.02" cy="41.83" r="1.2" transform="translate(35.1 162.49) rotate(-48)"/><circle class="cls-1" cx="208.3" cy="50.13" r="1.2" transform="translate(19.96 152.26) rotate(-42)"/><circle class="cls-1" cx="215.67" cy="59.24" r="1.2" transform="translate(6.37 138.09) rotate(-36)"/><circle class="cls-1" cx="222.05" cy="69.08" r="1.2" transform="translate(-4.79 120.28) rotate(-30)"/><circle class="cls-1" cx="227.36" cy="79.53" r="1.2" transform="translate(-12.69 99.35) rotate(-24)"/><circle class="cls-1" cx="231.56" cy="90.48" r="1.2" transform="translate(-16.63 75.98) rotate(-18)"/><circle class="cls-1" cx="234.58" cy="101.81" r="1.2" transform="translate(-16.04 51) rotate(-12)"/><circle class="cls-1" cx="236.4" cy="113.39" r="1.2" transform="translate(-10.56 25.33) rotate(-6)"/><circle class="cls-1" cx="237.01" cy="125.1" r="1.2"/><circle class="cls-1" cx="236.38" cy="136.81" r="1.2" transform="translate(75.62 357.6) rotate(-84)"/><circle class="cls-1" cx="234.54" cy="148.39" r="1.2" transform="translate(40.63 346.95) rotate(-78)"/><circle class="cls-1" cx="231.49" cy="159.71" r="1.2" transform="translate(8.07 330.52) rotate(-72)"/><circle class="cls-1" cx="227.28" cy="170.65" r="1.2" transform="translate(-21.06 308.87) rotate(-66)"/><circle class="cls-1" cx="221.95" cy="181.09" r="1.2" transform="translate(-45.85 282.76) rotate(-60)"/><circle class="cls-1" cx="215.56" cy="190.92" r="1.2" transform="translate(-65.6 253.09) rotate(-54)"/><circle class="cls-1" cx="208.17" cy="200.02" r="1.2" transform="translate(-79.77 220.88) rotate(-48)"/><circle class="cls-1" cx="199.87" cy="208.3" r="1.2" transform="translate(-88.04 187.25) rotate(-42)"/><circle class="cls-1" cx="190.76" cy="215.67" r="1.2" transform="translate(-90.34 153.31) rotate(-36)"/><circle class="cls-1" cx="180.92" cy="222.05" r="1.2" transform="translate(-86.79 120.21) rotate(-30)"/><circle class="cls-1" cx="170.47" cy="227.36" r="1.2" transform="translate(-77.74 88.99) rotate(-24)"/><circle class="cls-1" cx="159.52" cy="231.56" r="1.2" transform="translate(-63.75 60.63) rotate(-18)"/><circle class="cls-1" cx="148.19" cy="234.58" r="1.2" transform="translate(-45.53 35.94) rotate(-12)"/><circle class="cls-1" cx="136.61" cy="236.4" r="1.2" transform="translate(-23.96 15.57) rotate(-6)"/><circle class="cls-1" cx="124.9" cy="237.01" r="1.2"/><circle class="cls-1" cx="113.19" cy="236.38" r="1.2" transform="translate(-133.73 324.25) rotate(-84)"/><circle class="cls-1" cx="101.61" cy="234.54" r="1.2" transform="translate(-148.93 285.17) rotate(-78)"/><circle class="cls-1" cx="90.29" cy="231.49" r="1.2" transform="translate(-157.77 245.83) rotate(-72)"/><circle class="cls-1" cx="79.35" cy="227.28" r="1.2" transform="matrix(0.41, -0.91, 0.91, 0.41, -160.56, 207.33)"/><circle class="cls-1" cx="68.91" cy="221.95" r="1.2" transform="translate(-157.76 170.65) rotate(-60)"/><circle class="cls-1" cx="59.08" cy="215.56" r="1.2" transform="translate(-150.03 136.65) rotate(-54)"/><circle class="cls-1" cx="49.98" cy="208.17" r="1.2" transform="translate(-138.17 106.02) rotate(-48)"/><circle class="cls-1" cx="41.7" cy="199.87" r="1.2" transform="translate(-123.03 79.24) rotate(-42)"/><circle class="cls-1" cx="34.33" cy="190.76" r="1.2" transform="translate(-105.57 56.61) rotate(-36)"/><circle class="cls-1" cx="27.95" cy="180.92" r="1.2" transform="matrix(0.87, -0.5, 0.5, 0.87, -86.71, 38.21)"/><circle class="cls-1" cx="22.64" cy="170.47" r="1.2" transform="translate(-67.38 23.94) rotate(-24)"/><circle class="cls-1" cx="18.44" cy="159.52" r="1.2" transform="translate(-48.39 13.51) rotate(-18)"/><circle class="cls-1" cx="15.42" cy="148.19" r="1.2" transform="translate(-30.47 6.44) rotate(-12)"/><circle class="cls-1" cx="13.6" cy="136.61" r="1.2" transform="translate(-14.21 2.17) rotate(-6)"/><circle class="cls-1" cx="12.99" cy="124.9" r="1.2"/><circle class="cls-1" cx="13.62" cy="113.19" r="1.2" transform="translate(-100.38 114.9) rotate(-84)"/><circle class="cls-1" cx="15.46" cy="101.61" r="1.2" transform="translate(-87.15 95.61) rotate(-78)"/><circle class="cls-1" cx="18.51" cy="90.29" r="1.2" transform="translate(-73.09 79.99) rotate(-72)"/><circle class="cls-1" cx="22.72" cy="79.35" r="1.2" transform="translate(-59.01 67.83) rotate(-66)"/><circle class="cls-1" cx="28.05" cy="68.91" r="1.2" transform="translate(-45.65 58.75) rotate(-60)"/><circle class="cls-1" cx="34.44" cy="59.08" r="1.2" transform="translate(-33.6 52.22) rotate(-54)"/><circle class="cls-1" cx="41.83" cy="49.98" r="1.2" transform="translate(-23.3 47.62) rotate(-48)"/><circle class="cls-1" cx="50.13" cy="41.7" r="1.2" transform="translate(-15.02 44.25) rotate(-42)"/><circle class="cls-1" cx="59.24" cy="34.33" r="1.2" transform="translate(-8.86 41.38) rotate(-36)"/><circle class="cls-1" cx="69.08" cy="27.95" r="1.2" transform="translate(-4.72 38.29) rotate(-30)"/><circle class="cls-1" cx="79.53" cy="22.64" r="1.2" transform="translate(-2.33 34.31) rotate(-24)"/><circle class="cls-1" cx="90.48" cy="18.44" r="1.2" transform="translate(-1.27 28.86) rotate(-18)"/><circle class="cls-1" cx="101.81" cy="15.42" r="1.2" transform="translate(-0.98 21.5) rotate(-12)"/><circle class="cls-1" cx="113.39" cy="13.6" r="1.2" transform="translate(-0.8 11.93) rotate(-6)"/><circle class="cls-1" cx="125.1" cy="12.99" r="1.2"/><circle class="cls-1" cx="181.09" cy="28.05" r="2.99" transform="translate(66.25 170.85) rotate(-60)"/><circle class="cls-1" cx="222.05" cy="69.08" r="2.99" transform="matrix(0.87, -0.5, 0.5, 0.87, -4.79, 120.28)"/><circle class="cls-1" cx="237.01" cy="125.1" r="2.99"/><circle class="cls-1" cx="221.95" cy="181.09" r="2.99" transform="translate(-45.85 282.76) rotate(-60)"/><circle class="cls-1" cx="180.92" cy="222.05" r="2.99" transform="matrix(0.87, -0.5, 0.5, 0.87, -86.79, 120.21)"/><circle class="cls-1" cx="124.9" cy="237.01" r="2.99"/><circle class="cls-1" cx="68.91" cy="221.95" r="2.99" transform="translate(-157.76 170.65) rotate(-60)"/><circle class="cls-1" cx="27.95" cy="180.92" r="2.99" transform="translate(-86.71 38.21) rotate(-30)"/><circle class="cls-1" cx="12.99" cy="124.9" r="2.99"/><circle class="cls-1" cx="28.05" cy="68.91" r="2.99" transform="translate(-45.65 58.75) rotate(-60)"/><circle class="cls-1" cx="69.08" cy="27.95" r="2.99" transform="translate(-4.72 38.29) rotate(-30)"/><circle class="cls-1" cx="125.1" cy="12.99" r="2.99"/><path class="cls-1" d="M125,1.5a123.5,123.5,0,0,1,87.33,210.83A123.5,123.5,0,0,1,37.67,37.67,122.7,122.7,0,0,1,125,1.5m0-1A124.5,124.5,0,1,0,249.5,125,124.5,124.5,0,0,0,125,.5h0Z"/></svg>