<svg id="Dots_Small_Larger" data-name="Dots Small Larger" xmlns="http://www.w3.org/2000/svg" viewBox="0 0 250 250"><defs><style>.cls-1{fill:#fff;}</style></defs><title>face-012</title><circle class="cls-1" cx="135.52" cy="25.72" r="1.07" transform="translate(95.78 157.82) rotate(-84)"/><circle class="cls-1" cx="145.84" cy="27.37" r="1.07" transform="translate(88.75 164.33) rotate(-78)"/><circle class="cls-1" cx="155.93" cy="30.08" r="1.07" transform="translate(79.14 169.09) rotate(-72)"/><circle class="cls-1" cx="165.69" cy="33.83" r="1.07" transform="translate(67.39 171.44) rotate(-66)"/><circle class="cls-1" cx="174.99" cy="38.59" r="1.07" transform="translate(54.08 170.84) rotate(-60)"/><circle class="cls-1" cx="183.75" cy="44.29" r="1.07" transform="translate(39.92 166.91) rotate(-54)"/><circle class="cls-1" cx="191.87" cy="50.87" r="1.07" transform="translate(25.68 159.42) rotate(-48)"/><circle class="cls-1" cx="199.25" cy="58.26" r="1.07" transform="translate(12.19 148.29) rotate(-42)"/><circle class="cls-1" cx="205.82" cy="66.39" r="1.07" transform="translate(0.28 133.66) rotate(-36)"/><circle class="cls-1" cx="211.5" cy="75.16" r="1.07" transform="matrix(0.87, -0.5, 0.5, 0.87, -9.24, 115.82)"/><circle class="cls-1" cx="216.24" cy="84.48" r="1.07" transform="translate(-15.66 95.26) rotate(-24)"/><circle class="cls-1" cx="219.97" cy="94.23" r="1.07" transform="translate(-18.35 72.59) rotate(-18)"/><circle class="cls-1" cx="222.67" cy="104.33" r="1.07" transform="translate(-16.83 48.58) rotate(-12)"/><circle class="cls-1" cx="224.3" cy="114.65" r="1.07" transform="translate(-10.76 24.07) rotate(-6)"/><circle class="cls-1" cx="224.83" cy="125.09" r="1.07"/><circle class="cls-1" cx="224.28" cy="135.52" r="1.07" transform="translate(66.05 344.41) rotate(-84)"/><circle class="cls-1" cx="222.63" cy="145.84" r="1.07" transform="translate(33.69 333.29) rotate(-78)"/><circle class="cls-1" cx="219.92" cy="155.93" r="1.07" transform="translate(3.66 316.9) rotate(-72)"/><circle class="cls-1" cx="216.17" cy="165.69" r="1.07" transform="translate(-23.12 295.77) rotate(-66)"/><circle class="cls-1" cx="211.41" cy="174.99" r="1.07" transform="translate(-45.84 270.59) rotate(-60)"/><circle class="cls-1" cx="205.71" cy="183.75" r="1.07" transform="translate(-63.86 242.17) rotate(-54)"/><circle class="cls-1" cx="199.13" cy="191.87" r="1.07" transform="translate(-76.7 211.47) rotate(-48)"/><circle class="cls-1" cx="191.74" cy="199.25" r="1.07" transform="translate(-84.08 179.47) rotate(-42)"/><circle class="cls-1" cx="183.61" cy="205.82" r="1.07" transform="translate(-85.91 147.23) rotate(-36)"/><circle class="cls-1" cx="174.84" cy="211.5" r="1.07" transform="translate(-82.33 115.76) rotate(-30)"/><circle class="cls-1" cx="165.52" cy="216.24" r="1.07" transform="translate(-73.64 86.02) rotate(-24)"/><circle class="cls-1" cx="155.77" cy="219.97" r="1.07" transform="matrix(0.95, -0.31, 0.31, 0.95, -60.35, 58.9)"/><circle class="cls-1" cx="145.67" cy="222.67" r="1.07" transform="translate(-43.11 35.15) rotate(-12)"/><circle class="cls-1" cx="135.35" cy="224.3" r="1.07" transform="translate(-22.7 15.38) rotate(-6)"/><circle class="cls-1" cx="124.91" cy="224.83" r="1.07"/><circle class="cls-1" cx="114.48" cy="224.28" r="1.07" transform="translate(-120.54 314.68) rotate(-84)"/><circle class="cls-1" cx="104.16" cy="222.63" r="1.07" transform="translate(-135.27 278.23) rotate(-78)"/><circle class="cls-1" cx="94.07" cy="219.92" r="1.07" transform="translate(-144.16 241.42) rotate(-72)"/><circle class="cls-1" cx="84.31" cy="216.17" r="1.07" transform="translate(-147.46 205.27) rotate(-66)"/><circle class="cls-1" cx="75.01" cy="211.41" r="1.07" transform="translate(-145.59 170.66) rotate(-60)"/><circle class="cls-1" cx="66.25" cy="205.71" r="1.07" transform="matrix(0.59, -0.81, 0.81, 0.59, -139.12, 138.39)"/><circle class="cls-1" cx="58.13" cy="199.13" r="1.07" transform="translate(-128.75 109.09) rotate(-48)"/><circle class="cls-1" cx="50.75" cy="191.74" r="1.07" transform="translate(-115.26 83.21) rotate(-42)"/><circle class="cls-1" cx="44.18" cy="183.61" r="1.07" transform="translate(-99.48 61.04) rotate(-36)"/><circle class="cls-1" cx="38.5" cy="174.84" r="1.07" transform="translate(-82.26 42.67) rotate(-30)"/><circle class="cls-1" cx="33.76" cy="165.52" r="1.07" transform="translate(-64.41 28.04) rotate(-24)"/><circle class="cls-1" cx="30.03" cy="155.77" r="1.07" transform="matrix(0.95, -0.31, 0.31, 0.95, -46.66, 16.9)"/><circle class="cls-1" cx="27.33" cy="145.67" r="1.07" transform="translate(-29.69 8.87) rotate(-12)"/><circle class="cls-1" cx="25.7" cy="135.35" r="1.07" transform="translate(-14.01 3.43) rotate(-6)"/><circle class="cls-1" cx="25.17" cy="124.91" r="1.07"/><circle class="cls-1" cx="25.72" cy="114.48" r="1.07" transform="translate(-90.81 128.09) rotate(-84)"/><circle class="cls-1" cx="27.37" cy="104.16" r="1.07" transform="translate(-80.2 109.27) rotate(-78)"/><circle class="cls-1" cx="30.08" cy="94.07" r="1.07" transform="translate(-68.68 93.61) rotate(-72)"/><circle class="cls-1" cx="33.83" cy="84.31" r="1.07" transform="translate(-56.95 80.93) rotate(-66)"/><circle class="cls-1" cx="38.59" cy="75.01" r="1.07" transform="translate(-45.66 70.92) rotate(-60)"/><circle class="cls-1" cx="44.29" cy="66.25" r="1.07" transform="translate(-35.34 63.14) rotate(-54)"/><circle class="cls-1" cx="50.87" cy="58.13" r="1.07" transform="translate(-26.37 57.04) rotate(-48)"/><circle class="cls-1" cx="58.26" cy="50.75" r="1.07" transform="translate(-18.99 52.02) rotate(-42)"/><circle class="cls-1" cx="66.39" cy="44.18" r="1.07" transform="translate(-13.29 47.46) rotate(-36)"/><circle class="cls-1" cx="75.16" cy="38.5" r="1.07" transform="translate(-9.18 42.74) rotate(-30)"/><circle class="cls-1" cx="84.48" cy="33.76" r="1.07" transform="translate(-6.43 37.28) rotate(-24)"/><circle class="cls-1" cx="94.23" cy="30.03" r="1.07" transform="translate(-4.67 30.59) rotate(-18)"/><circle class="cls-1" cx="104.33" cy="27.33" r="1.07" transform="translate(-3.4 22.29) rotate(-12)"/><circle class="cls-1" cx="114.65" cy="25.7" r="1.07" transform="translate(-2.06 12.13) rotate(-6)"/><circle class="cls-1" cx="125.09" cy="25.17" r="1.07"/><circle class="cls-1" cx="174.99" cy="38.59" r="2.67" transform="translate(54.08 170.84) rotate(-60)"/><circle class="cls-1" cx="211.5" cy="75.16" r="2.67" transform="matrix(0.87, -0.5, 0.5, 0.87, -9.24, 115.82)"/><circle class="cls-1" cx="224.83" cy="125.09" r="2.67"/><circle class="cls-1" cx="211.41" cy="174.99" r="2.67" transform="translate(-45.84 270.59) rotate(-60)"/><circle class="cls-1" cx="174.84" cy="211.5" r="2.67" transform="matrix(0.87, -0.5, 0.5, 0.87, -82.33, 115.76)"/><circle class="cls-1" cx="124.91" cy="224.83" r="2.67"/><circle class="cls-1" cx="75.01" cy="211.41" r="2.67" transform="translate(-145.59 170.66) rotate(-60)"/><circle class="cls-1" cx="38.5" cy="174.84" r="2.67" transform="translate(-82.26 42.67) rotate(-30)"/><circle class="cls-1" cx="25.17" cy="124.91" r="2.67"/><circle class="cls-1" cx="38.59" cy="75.01" r="2.67" transform="translate(-45.66 70.92) rotate(-60)"/><circle class="cls-1" cx="75.16" cy="38.5" r="2.67" transform="translate(-9.18 42.74) rotate(-30)"/><circle class="cls-1" cx="125.09" cy="25.17" r="2.67"/></svg>
